M48
; DRILL file {KiCad 9.0.4} date 2026-04-18T11:09:29-0500
; FORMAT={-:-/ absolute / metric / decimal}
; #@! TF.CreationDate,2026-04-18T11:09:29-05:00
; #@! TF.GenerationSoftware,Kicad,Pcbnew,9.0.4
; #@! TF.FileFunction,Plated,1,2,PTH
FMAT,2
METRIC
; #@! TA.AperFunction,Plated,PTH,ViaDrill
T1C0.300
; #@! TA.AperFunction,Plated,PTH,ViaDrill
T2C0.800
; #@! TA.AperFunction,Plated,PTH,ComponentDrill
T3C0.800
; #@! TA.AperFunction,Plated,PTH,ComponentDrill
T4C0.900
; #@! TA.AperFunction,Plated,PTH,ViaDrill
T5C1.000
; #@! TA.AperFunction,Plated,PTH,ComponentDrill
T6C1.000
; #@! TA.AperFunction,Plated,PTH,ComponentDrill
T7C1.500
%
G90
G05
T1
X180.5Y-85.0
X181.5Y-82.5
X182.5Y-80.0
X183.5Y-77.5
X200.602Y-90.0
X201.5Y-82.0
T2
X192.614Y-81.393
X192.658Y-83.342
T3
X188.38Y-97.42
X188.38Y-99.96
X188.38Y-102.5
X188.38Y-105.04
X188.38Y-107.58
X188.38Y-110.12
X188.38Y-112.66
X188.38Y-115.2
X196.0Y-97.42
X196.0Y-99.96
X196.0Y-102.5
X196.0Y-105.04
X196.0Y-107.58
X196.0Y-110.12
X196.0Y-112.66
X196.0Y-115.2
T4
X206.0Y-111.0
X206.0Y-113.0
X206.0Y-115.0
T5
X195.79Y-77.588
T6
X185.4Y-75.125
X185.4Y-77.665
X185.4Y-80.205
X185.4Y-82.745
X185.4Y-85.285
X185.4Y-87.825
X185.4Y-90.365
X185.4Y-92.905
X185.4Y-97.675
X185.4Y-100.215
X185.4Y-102.755
X185.4Y-105.295
X185.4Y-107.835
X185.4Y-110.375
X198.6Y-97.65
X198.6Y-100.19
X198.6Y-102.73
X198.6Y-105.27
T7
X206.0Y-108.9
X206.0Y-117.1
M30
