%TF.GenerationSoftware,KiCad,Pcbnew,9.0.4*%
%TF.CreationDate,2026-04-14T14:53:45-05:00*%
%TF.ProjectId,Vibro_Band,56696272-6f5f-4426-916e-642e6b696361,rev?*%
%TF.SameCoordinates,Original*%
%TF.FileFunction,Legend,Bot*%
%TF.FilePolarity,Positive*%
%FSLAX46Y46*%
G04 Gerber Fmt 4.6, Leading zero omitted, Abs format (unit mm)*
G04 Created by KiCad (PCBNEW 9.0.4) date 2026-04-14 14:53:45*
%MOMM*%
%LPD*%
G01*
G04 APERTURE LIST*
%ADD10C,0.150000*%
%ADD11C,0.120000*%
G04 APERTURE END LIST*
D10*
G36*
X200770041Y-74008365D02*
G01*
X200770041Y-75113625D01*
X201216945Y-75113625D01*
X201216945Y-75089811D01*
X201130656Y-75049316D01*
X201035350Y-74999563D01*
X200943496Y-74944616D01*
X200867800Y-74889776D01*
X200823652Y-74848057D01*
X200802327Y-74815414D01*
X200796297Y-74789026D01*
X200793489Y-74733094D01*
X201610908Y-74733094D01*
X201675389Y-74735903D01*
X201716209Y-74743575D01*
X201737793Y-74754771D01*
X201751397Y-74772603D01*
X201758859Y-74800261D01*
X201763743Y-74856193D01*
X201766552Y-74900950D01*
X201790000Y-74900950D01*
X201790000Y-74216826D01*
X201766552Y-74216826D01*
X201762339Y-74309211D01*
X201754087Y-74346855D01*
X201741334Y-74366547D01*
X201720076Y-74378178D01*
X201678197Y-74386147D01*
X201613717Y-74388956D01*
X200793489Y-74388956D01*
X200796297Y-74334368D01*
X200802139Y-74306999D01*
X200822264Y-74274650D01*
X200862915Y-74235022D01*
X200934965Y-74182463D01*
X201031137Y-74125235D01*
X201131101Y-74073001D01*
X201216945Y-74032178D01*
X201216945Y-74008365D01*
X200770041Y-74008365D01*
G37*
G36*
X201537043Y-75150727D02*
G01*
X201604128Y-75171127D01*
X201661426Y-75203983D01*
X201710560Y-75249851D01*
X201749635Y-75305256D01*
X201777960Y-75368000D01*
X201795568Y-75439429D01*
X201801723Y-75521266D01*
X201794886Y-75597803D01*
X201775145Y-75665309D01*
X201742861Y-75725514D01*
X201698883Y-75777747D01*
X201645068Y-75819529D01*
X201580012Y-75851421D01*
X201570303Y-75829012D01*
X201616853Y-75808280D01*
X201656865Y-75782879D01*
X201691081Y-75752808D01*
X201717147Y-75717007D01*
X201733391Y-75672797D01*
X201739197Y-75617803D01*
X201735626Y-75578694D01*
X201725501Y-75545735D01*
X201709216Y-75517725D01*
X201674803Y-75482660D01*
X201630326Y-75456175D01*
X201580544Y-75437976D01*
X201529148Y-75426805D01*
X201426566Y-75419112D01*
X201426566Y-75848613D01*
X201362346Y-75843074D01*
X201304739Y-75826985D01*
X201252489Y-75800561D01*
X201204672Y-75763250D01*
X201166327Y-75717924D01*
X201138177Y-75663183D01*
X201120319Y-75597089D01*
X201113935Y-75517053D01*
X201114630Y-75508688D01*
X201137383Y-75508688D01*
X201142500Y-75540449D01*
X201156877Y-75564003D01*
X201181285Y-75581411D01*
X201230676Y-75596356D01*
X201310062Y-75602416D01*
X201363002Y-75603087D01*
X201399211Y-75605225D01*
X201399211Y-75419112D01*
X201310062Y-75421920D01*
X201228206Y-75432561D01*
X201179881Y-75446345D01*
X201155918Y-75461394D01*
X201142192Y-75481623D01*
X201137383Y-75508688D01*
X201114630Y-75508688D01*
X201120199Y-75441613D01*
X201138439Y-75373350D01*
X201168423Y-75310926D01*
X201210717Y-75253332D01*
X201262764Y-75205051D01*
X201320411Y-75171189D01*
X201384841Y-75150638D01*
X201457829Y-75143545D01*
X201537043Y-75150727D01*
G37*
G36*
X201514249Y-76145245D02*
G01*
X201234103Y-75978794D01*
X201191312Y-75949966D01*
X201171393Y-75932571D01*
X201159199Y-75913471D01*
X201151915Y-75886470D01*
X201149106Y-75847269D01*
X201125659Y-75847269D01*
X201125659Y-76318719D01*
X201149106Y-76318719D01*
X201150511Y-76280983D01*
X201156128Y-76252957D01*
X201162402Y-76246988D01*
X201175607Y-76244591D01*
X201191666Y-76246667D01*
X201222990Y-76261383D01*
X201344256Y-76331359D01*
X201229951Y-76420874D01*
X201196345Y-76439954D01*
X201177011Y-76444626D01*
X201162670Y-76440991D01*
X201153988Y-76430420D01*
X201150511Y-76409699D01*
X201149106Y-76377520D01*
X201125659Y-76377520D01*
X201125659Y-76609734D01*
X201149106Y-76609734D01*
X201149106Y-76594347D01*
X201151915Y-76564244D01*
X201163761Y-76525776D01*
X201178391Y-76505964D01*
X201218777Y-76467035D01*
X201366543Y-76345341D01*
X201681556Y-76534202D01*
X201726561Y-76564202D01*
X201745669Y-76581036D01*
X201756756Y-76599496D01*
X201763743Y-76626526D01*
X201766552Y-76655896D01*
X201790000Y-76655896D01*
X201790000Y-76192812D01*
X201766552Y-76192812D01*
X201765148Y-76230608D01*
X201759443Y-76251627D01*
X201750238Y-76262158D01*
X201737304Y-76265596D01*
X201721710Y-76262598D01*
X201692669Y-76250209D01*
X201536598Y-76159289D01*
X201685708Y-76043152D01*
X201719139Y-76023920D01*
X201737304Y-76019338D01*
X201750238Y-76022777D01*
X201759443Y-76033307D01*
X201765148Y-76054326D01*
X201766552Y-76092123D01*
X201790000Y-76092123D01*
X201790000Y-75843056D01*
X201766552Y-75843056D01*
X201765148Y-75886409D01*
X201756956Y-75921601D01*
X201745669Y-75945150D01*
X201729279Y-75965867D01*
X201703843Y-75990640D01*
X201620190Y-76059883D01*
X201514249Y-76145245D01*
G37*
G36*
X201672894Y-76660029D02*
G01*
X201717096Y-76678739D01*
X201752997Y-76709324D01*
X201779473Y-76749161D01*
X201795902Y-76796959D01*
X201801723Y-76854832D01*
X201798195Y-76910329D01*
X201788487Y-76955163D01*
X201773574Y-76991242D01*
X201751601Y-77022907D01*
X201723665Y-77047657D01*
X201688944Y-77066102D01*
X201720828Y-77076658D01*
X201747944Y-77095206D01*
X201771132Y-77122705D01*
X201788005Y-77155140D01*
X201798221Y-77190587D01*
X201801723Y-77229806D01*
X201798811Y-77281811D01*
X201791221Y-77319321D01*
X201775172Y-77354076D01*
X201741762Y-77398333D01*
X201721048Y-77415293D01*
X201689739Y-77429069D01*
X201644222Y-77438703D01*
X201580012Y-77442419D01*
X201580012Y-77422880D01*
X201635064Y-77419305D01*
X201678503Y-77409569D01*
X201702536Y-77397591D01*
X201715378Y-77382253D01*
X201719658Y-77362674D01*
X201713239Y-77339781D01*
X201694501Y-77327747D01*
X201668009Y-77321758D01*
X201625929Y-77319321D01*
X201305605Y-77319321D01*
X201259653Y-77313326D01*
X201221248Y-77296065D01*
X201188550Y-77267122D01*
X201160830Y-77224188D01*
X201134964Y-77159346D01*
X201119279Y-77090166D01*
X201113935Y-77015727D01*
X201120117Y-76927455D01*
X201137719Y-76850896D01*
X201165837Y-76784185D01*
X201196031Y-76739190D01*
X201228748Y-76709694D01*
X201264472Y-76692697D01*
X201304567Y-76686976D01*
X201331752Y-76690985D01*
X201354511Y-76702651D01*
X201373993Y-76722636D01*
X201393285Y-76760873D01*
X201399883Y-76805861D01*
X201395378Y-76862985D01*
X201383620Y-76903299D01*
X201366360Y-76931097D01*
X201342051Y-76953077D01*
X201316760Y-76965477D01*
X201289607Y-76969565D01*
X201260343Y-76965927D01*
X201237852Y-76955826D01*
X201220486Y-76939462D01*
X201196978Y-76915173D01*
X201182079Y-76909420D01*
X201164605Y-76913949D01*
X201149961Y-76928288D01*
X201140695Y-76948860D01*
X201137383Y-76975183D01*
X201140573Y-77003888D01*
X201148767Y-77022446D01*
X201161074Y-77033923D01*
X201188939Y-77043747D01*
X201239049Y-77047906D01*
X201365811Y-77049310D01*
X201387911Y-77045145D01*
X201387968Y-77045097D01*
X201411057Y-77045097D01*
X201412461Y-77049310D01*
X201677831Y-77049310D01*
X201700215Y-77040326D01*
X201722283Y-77023421D01*
X201738020Y-77001303D01*
X201743105Y-76976587D01*
X201738958Y-76956098D01*
X201727071Y-76941584D01*
X201705614Y-76931769D01*
X201664929Y-76924757D01*
X201605535Y-76921999D01*
X201564252Y-76923937D01*
X201524324Y-76929692D01*
X201488541Y-76939831D01*
X201470835Y-76950636D01*
X201457986Y-76967152D01*
X201442320Y-76998203D01*
X201425995Y-77028865D01*
X201411057Y-77045097D01*
X201387968Y-77045097D01*
X201401287Y-77033923D01*
X201410516Y-77015697D01*
X201420826Y-76982815D01*
X201428629Y-76942055D01*
X201436824Y-76871624D01*
X201445217Y-76801102D01*
X201453555Y-76759699D01*
X201470177Y-76725487D01*
X201505762Y-76688381D01*
X201535882Y-76669504D01*
X201572674Y-76657636D01*
X201617869Y-76653393D01*
X201672894Y-76660029D01*
G37*
G36*
X201500816Y-77487787D02*
G01*
X201500816Y-77505983D01*
X201605949Y-77545269D01*
X201667756Y-77578707D01*
X201715672Y-77617930D01*
X201747745Y-77657780D01*
X201767368Y-77703851D01*
X201774368Y-77762011D01*
X201769523Y-77794945D01*
X201755500Y-77822156D01*
X201733128Y-77840963D01*
X201702988Y-77847374D01*
X201663479Y-77841923D01*
X201638630Y-77827773D01*
X201618326Y-77804676D01*
X201593140Y-77766163D01*
X201538613Y-77668954D01*
X201507736Y-77616458D01*
X201479872Y-77576631D01*
X201448779Y-77543335D01*
X201414781Y-77519234D01*
X201376288Y-77504198D01*
X201330823Y-77498961D01*
X201280690Y-77504136D01*
X201238252Y-77518909D01*
X201201887Y-77543008D01*
X201170600Y-77577302D01*
X201139705Y-77632033D01*
X201120620Y-77695250D01*
X201113935Y-77768972D01*
X201118637Y-77820997D01*
X201132559Y-77869722D01*
X201176461Y-77963450D01*
X201171147Y-77980882D01*
X201153136Y-77997034D01*
X201128270Y-78007391D01*
X201098304Y-78011017D01*
X201098304Y-78030617D01*
X201379672Y-78030617D01*
X201379672Y-78012421D01*
X201305483Y-77984455D01*
X201265526Y-77964491D01*
X201223539Y-77936156D01*
X201186028Y-77902876D01*
X201159792Y-77869722D01*
X201143385Y-77831398D01*
X201137383Y-77780146D01*
X201142405Y-77743713D01*
X201156311Y-77716521D01*
X201177825Y-77697996D01*
X201203267Y-77692035D01*
X201232864Y-77696686D01*
X201253825Y-77709499D01*
X201271437Y-77729565D01*
X201292355Y-77760607D01*
X201344256Y-77852259D01*
X201406416Y-77956489D01*
X201440726Y-77998860D01*
X201482254Y-78033426D01*
X201513630Y-78050418D01*
X201547933Y-78060684D01*
X201585935Y-78064200D01*
X201637799Y-78058736D01*
X201680877Y-78043242D01*
X201717052Y-78018086D01*
X201747440Y-77982318D01*
X201776991Y-77925509D01*
X201795307Y-77860158D01*
X201801723Y-77784359D01*
X201795801Y-77725145D01*
X201777848Y-77666878D01*
X201723565Y-77556359D01*
X201729626Y-77540509D01*
X201752203Y-77524180D01*
X201781690Y-77513021D01*
X201813447Y-77507388D01*
X201813447Y-77487787D01*
X201500816Y-77487787D01*
G37*
G36*
X201790000Y-79158164D02*
G01*
X201766552Y-79158164D01*
X201760935Y-79086845D01*
X201750963Y-79047744D01*
X201735655Y-79025235D01*
X201711907Y-79011376D01*
X201671114Y-79002887D01*
X201606512Y-79000078D01*
X201278066Y-79000078D01*
X201279471Y-79058818D01*
X201283896Y-79087240D01*
X201294248Y-79113346D01*
X201306522Y-79126304D01*
X201334827Y-79140061D01*
X201389197Y-79153951D01*
X201568593Y-79179780D01*
X201636455Y-79196853D01*
X201693020Y-79224869D01*
X201740235Y-79263738D01*
X201768199Y-79299489D01*
X201788492Y-79340837D01*
X201801168Y-79388857D01*
X201805631Y-79444966D01*
X201798679Y-79515621D01*
X201778276Y-79579911D01*
X201757364Y-79619530D01*
X201733518Y-79651112D01*
X201706774Y-79675776D01*
X201661861Y-79703832D01*
X201621899Y-79717725D01*
X201577744Y-79723762D01*
X201512540Y-79726151D01*
X201512540Y-79703742D01*
X201571837Y-79700593D01*
X201621289Y-79691835D01*
X201649319Y-79680161D01*
X201663993Y-79664358D01*
X201668855Y-79643597D01*
X201662478Y-79619012D01*
X201642782Y-79600244D01*
X201611712Y-79585489D01*
X201553878Y-79565256D01*
X201493116Y-79542474D01*
X201438229Y-79514148D01*
X201390503Y-79479585D01*
X201358483Y-79443501D01*
X201334999Y-79402383D01*
X201317573Y-79356062D01*
X201287958Y-79236505D01*
X201278066Y-79236505D01*
X201272225Y-79346005D01*
X201258527Y-79407903D01*
X201234721Y-79458096D01*
X201204122Y-79498089D01*
X201165858Y-79529657D01*
X201120347Y-79551945D01*
X201071139Y-79565152D01*
X201022650Y-79569469D01*
X200979781Y-79565967D01*
X200941698Y-79555851D01*
X200907550Y-79539366D01*
X200862264Y-79504317D01*
X200824508Y-79458217D01*
X200805492Y-79422810D01*
X200790402Y-79379254D01*
X200779811Y-79326020D01*
X200771766Y-79238741D01*
X200768637Y-79114750D01*
X200768894Y-79000078D01*
X200793489Y-79000078D01*
X200796297Y-79054605D01*
X200799918Y-79086241D01*
X200808876Y-79124581D01*
X200820629Y-79147195D01*
X200844820Y-79169484D01*
X200886423Y-79191748D01*
X200953732Y-79212808D01*
X201021245Y-79219713D01*
X201102456Y-79212672D01*
X201173592Y-79192419D01*
X201214725Y-79169703D01*
X201239034Y-79143138D01*
X201250406Y-79112002D01*
X201254619Y-79047644D01*
X201254619Y-79000078D01*
X200793489Y-79000078D01*
X200768894Y-79000078D01*
X200770041Y-78489427D01*
X200793489Y-78489427D01*
X200795626Y-78531376D01*
X200800511Y-78584560D01*
X200808489Y-78612535D01*
X200822798Y-78632126D01*
X200845101Y-78644899D01*
X200885629Y-78653070D01*
X200949865Y-78655879D01*
X201611580Y-78655879D01*
X201675816Y-78653070D01*
X201716256Y-78645040D01*
X201737915Y-78632798D01*
X201751647Y-78614238D01*
X201758859Y-78588712D01*
X201766552Y-78529972D01*
X201766552Y-78486618D01*
X201790000Y-78486618D01*
X201790000Y-79158164D01*
G37*
G36*
X201529397Y-79756913D02*
G01*
X201593210Y-79777125D01*
X201650908Y-79810555D01*
X201703599Y-79858347D01*
X201746168Y-79915255D01*
X201776589Y-79978260D01*
X201795259Y-80048547D01*
X201801723Y-80127686D01*
X201795444Y-80202276D01*
X201777063Y-80270535D01*
X201746677Y-80333712D01*
X201703599Y-80392751D01*
X201650645Y-80442627D01*
X201592862Y-80477336D01*
X201529150Y-80498238D01*
X201457829Y-80505408D01*
X201385679Y-80498274D01*
X201321607Y-80477541D01*
X201263890Y-80443247D01*
X201211388Y-80394155D01*
X201168798Y-80335880D01*
X201138604Y-80272773D01*
X201120239Y-80203821D01*
X201113935Y-80127686D01*
X201114051Y-80126282D01*
X201137383Y-80126282D01*
X201142725Y-80155924D01*
X201158316Y-80179433D01*
X201185926Y-80198333D01*
X201238406Y-80215134D01*
X201309391Y-80221414D01*
X201378756Y-80224223D01*
X201456425Y-80227032D01*
X201540383Y-80222819D01*
X201606268Y-80221414D01*
X201674906Y-80215050D01*
X201728328Y-80197601D01*
X201757095Y-80178304D01*
X201772958Y-80155424D01*
X201778276Y-80127686D01*
X201772992Y-80098964D01*
X201757458Y-80075888D01*
X201729733Y-80057039D01*
X201677252Y-80040238D01*
X201606268Y-80033958D01*
X201536231Y-80031149D01*
X201456425Y-80028340D01*
X201373932Y-80031821D01*
X201309391Y-80033958D01*
X201241843Y-80040258D01*
X201188002Y-80057711D01*
X201158670Y-80077040D01*
X201142685Y-80099504D01*
X201137383Y-80126282D01*
X201114051Y-80126282D01*
X201120341Y-80050074D01*
X201138925Y-79980455D01*
X201169353Y-79917379D01*
X201212121Y-79859752D01*
X201264868Y-79811278D01*
X201322574Y-79777428D01*
X201386342Y-79756987D01*
X201457829Y-79749965D01*
X201529397Y-79756913D01*
G37*
G36*
X200796297Y-80555539D02*
G01*
X200804061Y-80590387D01*
X200815165Y-80606585D01*
X200833196Y-80614934D01*
X200867555Y-80618492D01*
X200924830Y-80619897D01*
X201568960Y-80619897D01*
X201688456Y-80617759D01*
X201793907Y-80615683D01*
X201793907Y-80632475D01*
X201723260Y-80673752D01*
X201689446Y-80696037D01*
X201666901Y-80715029D01*
X201666901Y-80723394D01*
X201710480Y-80766331D01*
X201756782Y-80822740D01*
X201780556Y-80865163D01*
X201796039Y-80920022D01*
X201801723Y-80990657D01*
X201795386Y-81071504D01*
X201777208Y-81142377D01*
X201747832Y-81204976D01*
X201707079Y-81260607D01*
X201656260Y-81306817D01*
X201598355Y-81339684D01*
X201531954Y-81359912D01*
X201455020Y-81366974D01*
X201379018Y-81361194D01*
X201313629Y-81344759D01*
X201257056Y-81318468D01*
X201207908Y-81282344D01*
X201166745Y-81236942D01*
X201137735Y-81186347D01*
X201120055Y-81129485D01*
X201113935Y-81064785D01*
X201117929Y-81001145D01*
X201122181Y-80983635D01*
X201149106Y-80983635D01*
X201154254Y-81014429D01*
X201168964Y-81038080D01*
X201194352Y-81056359D01*
X201243785Y-81072594D01*
X201313360Y-81078768D01*
X201380893Y-81081577D01*
X201455326Y-81084385D01*
X201539590Y-81080172D01*
X201605657Y-81078768D01*
X201674588Y-81072401D01*
X201728206Y-81054954D01*
X201757052Y-81035649D01*
X201772949Y-81012768D01*
X201778276Y-80985040D01*
X201773034Y-80956274D01*
X201757655Y-80933202D01*
X201730282Y-80914392D01*
X201678360Y-80897579D01*
X201608466Y-80891311D01*
X201530491Y-80887098D01*
X201437252Y-80887098D01*
X201319649Y-80888503D01*
X201229157Y-80895464D01*
X201199513Y-80904604D01*
X201173469Y-80920682D01*
X201160489Y-80935466D01*
X201152183Y-80955822D01*
X201149106Y-80983635D01*
X201122181Y-80983635D01*
X201127865Y-80960228D01*
X201141474Y-80935336D01*
X201170147Y-80904727D01*
X201196428Y-80885694D01*
X201086580Y-80888503D01*
X200770041Y-80888503D01*
X200770041Y-80502355D01*
X200793489Y-80502355D01*
X200796297Y-80555539D01*
G37*
G36*
X201529397Y-81415810D02*
G01*
X201593210Y-81436022D01*
X201650908Y-81469453D01*
X201703599Y-81517245D01*
X201746168Y-81574152D01*
X201776589Y-81637158D01*
X201795259Y-81707445D01*
X201801723Y-81786584D01*
X201795444Y-81861173D01*
X201777063Y-81929432D01*
X201746677Y-81992609D01*
X201703599Y-82051648D01*
X201650645Y-82101525D01*
X201592862Y-82136233D01*
X201529150Y-82157135D01*
X201457829Y-82164305D01*
X201385679Y-82157171D01*
X201321607Y-82136439D01*
X201263890Y-82102144D01*
X201211388Y-82053053D01*
X201168798Y-81994778D01*
X201138604Y-81931670D01*
X201120239Y-81862718D01*
X201113935Y-81786584D01*
X201114051Y-81785179D01*
X201137383Y-81785179D01*
X201142725Y-81814821D01*
X201158316Y-81838331D01*
X201185926Y-81857231D01*
X201238406Y-81874032D01*
X201309391Y-81880312D01*
X201378756Y-81883121D01*
X201456425Y-81885929D01*
X201540383Y-81881716D01*
X201606268Y-81880312D01*
X201674906Y-81873947D01*
X201728328Y-81856498D01*
X201757095Y-81837202D01*
X201772958Y-81814321D01*
X201778276Y-81786584D01*
X201772992Y-81757862D01*
X201757458Y-81734785D01*
X201729733Y-81715936D01*
X201677252Y-81699136D01*
X201606268Y-81692855D01*
X201536231Y-81690047D01*
X201456425Y-81687238D01*
X201373932Y-81690718D01*
X201309391Y-81692855D01*
X201241843Y-81699155D01*
X201188002Y-81716608D01*
X201158670Y-81735937D01*
X201142685Y-81758401D01*
X201137383Y-81785179D01*
X201114051Y-81785179D01*
X201120341Y-81708971D01*
X201138925Y-81639353D01*
X201169353Y-81576276D01*
X201212121Y-81518649D01*
X201264868Y-81470176D01*
X201322574Y-81436325D01*
X201386342Y-81415884D01*
X201457829Y-81408862D01*
X201529397Y-81415810D01*
G37*
G36*
X201180369Y-82277390D02*
G01*
X201180369Y-82182257D01*
X201141474Y-82182257D01*
X201123882Y-82229391D01*
X201094213Y-82281542D01*
X201057358Y-82331803D01*
X201014467Y-82380216D01*
X200968348Y-82424272D01*
X200925624Y-82458557D01*
X200882645Y-82487394D01*
X200847222Y-82506795D01*
X200847222Y-82545996D01*
X201125659Y-82545996D01*
X201125659Y-82729300D01*
X201180369Y-82709699D01*
X201180369Y-82545996D01*
X201558885Y-82545996D01*
X201629837Y-82548804D01*
X201668918Y-82552204D01*
X201698342Y-82561369D01*
X201720329Y-82575366D01*
X201737418Y-82594805D01*
X201747475Y-82616886D01*
X201750921Y-82642533D01*
X201745688Y-82676279D01*
X201730862Y-82702210D01*
X201705736Y-82722278D01*
X201658330Y-82741078D01*
X201604802Y-82747496D01*
X201604802Y-82767035D01*
X201655361Y-82761797D01*
X201700823Y-82746465D01*
X201742372Y-82720874D01*
X201765357Y-82695802D01*
X201783849Y-82657570D01*
X201796745Y-82601643D01*
X201801723Y-82522243D01*
X201795976Y-82459435D01*
X201779236Y-82402955D01*
X201751592Y-82351517D01*
X201723579Y-82318723D01*
X201691419Y-82295979D01*
X201654312Y-82282188D01*
X201610847Y-82277390D01*
X201180369Y-82277390D01*
G37*
G36*
X201790000Y-83213267D02*
G01*
X201790000Y-82759952D01*
X201766552Y-82759952D01*
X201765148Y-82793536D01*
X201756965Y-82828808D01*
X201745608Y-82842445D01*
X201725644Y-82848138D01*
X201678564Y-82850872D01*
X201614267Y-82852276D01*
X201280448Y-82852276D01*
X201223173Y-82850933D01*
X201172859Y-82842506D01*
X201160683Y-82830296D01*
X201151915Y-82792131D01*
X201149106Y-82754396D01*
X201125659Y-82754396D01*
X201125659Y-83120943D01*
X201614023Y-83120943D01*
X201678381Y-83122348D01*
X201724425Y-83125027D01*
X201744876Y-83130713D01*
X201756785Y-83144463D01*
X201765148Y-83179684D01*
X201766552Y-83213267D01*
X201790000Y-83213267D01*
G37*
G36*
X200890453Y-82849528D02*
G01*
X200855571Y-82853993D01*
X200824775Y-82867105D01*
X200796969Y-82889401D01*
X200775426Y-82917897D01*
X200762672Y-82949496D01*
X200758318Y-82985266D01*
X200762570Y-83022020D01*
X200774925Y-83054051D01*
X200795565Y-83082475D01*
X200822568Y-83104570D01*
X200853758Y-83117777D01*
X200890453Y-83122348D01*
X200926305Y-83117843D01*
X200957566Y-83104691D01*
X200985403Y-83082475D01*
X201006876Y-83053952D01*
X201019665Y-83021927D01*
X201024054Y-82985266D01*
X201019700Y-82949496D01*
X201006946Y-82917897D01*
X200985403Y-82889401D01*
X200957566Y-82867185D01*
X200926305Y-82854033D01*
X200890453Y-82849528D01*
G37*
G36*
X201137383Y-83663834D02*
G01*
X201140786Y-83639115D01*
X201150802Y-83617479D01*
X201167974Y-83598072D01*
X201201366Y-83574847D01*
X201243079Y-83556795D01*
X201288808Y-83544382D01*
X201339738Y-83535851D01*
X201440549Y-83529562D01*
X201524048Y-83534652D01*
X201597020Y-83549154D01*
X201660978Y-83572243D01*
X201702484Y-83598024D01*
X201731075Y-83630717D01*
X201748594Y-83671431D01*
X201754829Y-83722636D01*
X201749396Y-83772184D01*
X201733491Y-83816521D01*
X201706835Y-83856908D01*
X201672265Y-83891785D01*
X201631935Y-83920619D01*
X201585141Y-83943614D01*
X201596254Y-83964619D01*
X201659959Y-83928616D01*
X201710405Y-83885653D01*
X201749344Y-83835454D01*
X201777692Y-83777054D01*
X201795455Y-83708875D01*
X201801723Y-83628846D01*
X201795563Y-83550325D01*
X201777708Y-83479794D01*
X201748549Y-83415873D01*
X201707751Y-83357493D01*
X201656915Y-83308477D01*
X201599548Y-83273962D01*
X201534324Y-83252890D01*
X201459234Y-83245568D01*
X201383265Y-83252791D01*
X201317409Y-83273545D01*
X201259654Y-83307429D01*
X201208640Y-83355355D01*
X201167746Y-83412713D01*
X201138349Y-83476556D01*
X201120227Y-83548097D01*
X201113935Y-83628907D01*
X201117368Y-83689012D01*
X201127185Y-83742175D01*
X201142998Y-83792647D01*
X201163517Y-83839384D01*
X201190806Y-83883003D01*
X201229096Y-83926151D01*
X201259464Y-83949295D01*
X201292375Y-83962847D01*
X201328869Y-83967428D01*
X201361912Y-83963638D01*
X201389158Y-83952872D01*
X201411912Y-83935249D01*
X201428594Y-83911876D01*
X201439342Y-83880932D01*
X201443297Y-83840116D01*
X201439105Y-83805115D01*
X201426579Y-83772508D01*
X201405073Y-83741442D01*
X201377353Y-83716240D01*
X201348701Y-83702073D01*
X201318122Y-83697418D01*
X201281377Y-83701252D01*
X201245887Y-83712805D01*
X201212039Y-83724817D01*
X201187452Y-83728192D01*
X201167216Y-83723968D01*
X201151304Y-83711400D01*
X201141184Y-83692178D01*
X201137383Y-83663834D01*
G37*
G36*
X201500816Y-84031542D02*
G01*
X201500816Y-84049738D01*
X201605949Y-84089024D01*
X201667756Y-84122461D01*
X201715672Y-84161685D01*
X201747745Y-84201535D01*
X201767368Y-84247605D01*
X201774368Y-84305765D01*
X201769523Y-84338700D01*
X201755500Y-84365910D01*
X201733128Y-84384717D01*
X201702988Y-84391128D01*
X201663479Y-84385678D01*
X201638630Y-84371528D01*
X201618326Y-84348431D01*
X201593140Y-84309918D01*
X201538613Y-84212709D01*
X201507736Y-84160212D01*
X201479872Y-84120385D01*
X201448779Y-84087090D01*
X201414781Y-84062988D01*
X201376288Y-84047953D01*
X201330823Y-84042716D01*
X201280690Y-84047890D01*
X201238252Y-84062663D01*
X201201887Y-84086762D01*
X201170600Y-84121057D01*
X201139705Y-84175787D01*
X201120620Y-84239004D01*
X201113935Y-84312726D01*
X201118637Y-84364752D01*
X201132559Y-84413476D01*
X201176461Y-84507205D01*
X201171147Y-84524636D01*
X201153136Y-84540788D01*
X201128270Y-84551145D01*
X201098304Y-84554771D01*
X201098304Y-84574371D01*
X201379672Y-84574371D01*
X201379672Y-84556175D01*
X201305483Y-84528210D01*
X201265526Y-84508246D01*
X201223539Y-84479911D01*
X201186028Y-84446631D01*
X201159792Y-84413476D01*
X201143385Y-84375153D01*
X201137383Y-84323900D01*
X201142405Y-84287468D01*
X201156311Y-84260275D01*
X201177825Y-84241751D01*
X201203267Y-84235790D01*
X201232864Y-84240440D01*
X201253825Y-84253253D01*
X201271437Y-84273319D01*
X201292355Y-84304361D01*
X201344256Y-84396013D01*
X201406416Y-84500244D01*
X201440726Y-84542615D01*
X201482254Y-84577180D01*
X201513630Y-84594172D01*
X201547933Y-84604438D01*
X201585935Y-84607955D01*
X201637799Y-84602490D01*
X201680877Y-84586996D01*
X201717052Y-84561840D01*
X201747440Y-84526072D01*
X201776991Y-84469263D01*
X201795307Y-84403912D01*
X201801723Y-84328114D01*
X201795801Y-84268900D01*
X201777848Y-84210633D01*
X201723565Y-84100113D01*
X201729626Y-84084263D01*
X201752203Y-84067934D01*
X201781690Y-84056775D01*
X201813447Y-84051142D01*
X201813447Y-84031542D01*
X201500816Y-84031542D01*
G37*
G36*
X202621988Y-74226657D02*
G01*
X203275765Y-74226657D01*
X203342932Y-74229466D01*
X203384151Y-74237977D01*
X203410893Y-74252547D01*
X203428855Y-74275974D01*
X203439530Y-74314767D01*
X203446552Y-74412709D01*
X203470000Y-74412709D01*
X203470000Y-74009769D01*
X203446552Y-74009769D01*
X203444476Y-74055259D01*
X203438859Y-74114733D01*
X203429042Y-74146482D01*
X203410282Y-74169993D01*
X203383080Y-74185715D01*
X203343237Y-74194478D01*
X203276254Y-74197287D01*
X202628461Y-74197287D01*
X202564225Y-74194478D01*
X202533005Y-74181793D01*
X202508415Y-74164375D01*
X202490550Y-74141873D01*
X202481915Y-74115404D01*
X202476297Y-74058740D01*
X202473489Y-74016791D01*
X202450041Y-74016791D01*
X202450041Y-74534464D01*
X203055153Y-74769487D01*
X202450041Y-74980757D01*
X202450041Y-75484385D01*
X202473489Y-75484385D01*
X202473489Y-75452206D01*
X202478923Y-75394138D01*
X202488377Y-75354468D01*
X202502065Y-75333260D01*
X202523873Y-75320454D01*
X202563309Y-75312255D01*
X202625896Y-75309508D01*
X203290847Y-75309508D01*
X203355389Y-75312255D01*
X203396216Y-75319960D01*
X203417793Y-75331123D01*
X203431302Y-75350518D01*
X203440935Y-75389253D01*
X203446552Y-75459167D01*
X203470000Y-75459167D01*
X203470000Y-74821205D01*
X203446552Y-74821205D01*
X203442339Y-74885563D01*
X203433218Y-74925622D01*
X203421456Y-74944303D01*
X203401448Y-74954802D01*
X203358625Y-74962500D01*
X203294450Y-74965308D01*
X202776838Y-74965308D01*
X202674317Y-74968789D01*
X202563370Y-74976543D01*
X202563370Y-74968117D01*
X202743560Y-74910781D01*
X203470000Y-74663119D01*
X203470000Y-74576413D01*
X202621988Y-74235022D01*
X202621988Y-74226657D01*
G37*
G36*
X203217043Y-75541516D02*
G01*
X203284128Y-75561916D01*
X203341426Y-75594771D01*
X203390560Y-75640640D01*
X203429635Y-75696045D01*
X203457960Y-75758789D01*
X203475568Y-75830218D01*
X203481723Y-75912055D01*
X203474886Y-75988591D01*
X203455145Y-76056098D01*
X203422861Y-76116303D01*
X203378883Y-76168536D01*
X203325068Y-76210318D01*
X203260012Y-76242210D01*
X203250303Y-76219801D01*
X203296853Y-76199068D01*
X203336865Y-76173668D01*
X203371081Y-76143597D01*
X203397147Y-76107795D01*
X203413391Y-76063586D01*
X203419197Y-76008592D01*
X203415626Y-75969483D01*
X203405501Y-75936523D01*
X203389216Y-75908513D01*
X203354803Y-75873448D01*
X203310326Y-75846964D01*
X203260544Y-75828765D01*
X203209148Y-75817594D01*
X203106566Y-75809900D01*
X203106566Y-76239401D01*
X203042346Y-76233862D01*
X202984739Y-76217773D01*
X202932489Y-76191350D01*
X202884672Y-76154038D01*
X202846327Y-76108713D01*
X202818177Y-76053972D01*
X202800319Y-75987877D01*
X202793935Y-75907841D01*
X202794630Y-75899476D01*
X202817383Y-75899476D01*
X202822500Y-75931237D01*
X202836877Y-75954792D01*
X202861285Y-75972199D01*
X202910676Y-75987144D01*
X202990062Y-75993204D01*
X203043002Y-75993876D01*
X203079211Y-75996013D01*
X203079211Y-75809900D01*
X202990062Y-75812709D01*
X202908206Y-75823350D01*
X202859881Y-75837133D01*
X202835918Y-75852183D01*
X202822192Y-75872412D01*
X202817383Y-75899476D01*
X202794630Y-75899476D01*
X202800199Y-75832402D01*
X202818439Y-75764139D01*
X202848423Y-75701715D01*
X202890717Y-75644120D01*
X202942764Y-75595840D01*
X203000411Y-75561978D01*
X203064841Y-75541427D01*
X203137829Y-75534333D01*
X203217043Y-75541516D01*
G37*
G36*
X203214916Y-76281700D02*
G01*
X203282467Y-76298179D01*
X203339774Y-76324270D01*
X203388483Y-76359752D01*
X203429200Y-76404775D01*
X203457996Y-76455332D01*
X203475608Y-76512544D01*
X203481723Y-76578044D01*
X203477792Y-76641690D01*
X203468023Y-76682560D01*
X203454673Y-76707370D01*
X203426360Y-76738047D01*
X203400451Y-76757074D01*
X203470000Y-76757074D01*
X203470000Y-77133452D01*
X203446552Y-77133452D01*
X203443743Y-77088695D01*
X203436116Y-77054814D01*
X203424937Y-77037587D01*
X203406708Y-77028252D01*
X203372486Y-77024337D01*
X203315150Y-77022932D01*
X202450041Y-77022932D01*
X202450041Y-76611627D01*
X202473489Y-76611627D01*
X202477702Y-76677390D01*
X202486883Y-76718680D01*
X202498646Y-76737534D01*
X202518494Y-76747226D01*
X202560195Y-76751517D01*
X202624553Y-76754326D01*
X202803644Y-76754326D01*
X202876367Y-76755669D01*
X202848530Y-76736774D01*
X202820497Y-76708103D01*
X202807552Y-76684526D01*
X202801877Y-76660598D01*
X202833014Y-76660598D01*
X202837653Y-76692364D01*
X202851210Y-76719338D01*
X202873098Y-76739381D01*
X202904272Y-76750113D01*
X203007709Y-76754326D01*
X203136303Y-76754326D01*
X203258607Y-76752922D01*
X203372486Y-76748709D01*
X203405707Y-76737970D01*
X203427899Y-76720204D01*
X203441542Y-76694859D01*
X203446552Y-76659193D01*
X203441880Y-76631865D01*
X203428334Y-76610171D01*
X203404665Y-76592698D01*
X203359127Y-76575489D01*
X203297015Y-76564733D01*
X203204752Y-76558443D01*
X203141859Y-76558443D01*
X203062908Y-76559848D01*
X202967897Y-76567541D01*
X202917526Y-76577896D01*
X202874230Y-76595507D01*
X202850886Y-76612848D01*
X202837582Y-76634102D01*
X202833014Y-76660598D01*
X202801877Y-76660598D01*
X202797886Y-76643771D01*
X202793935Y-76578044D01*
X202800054Y-76512547D01*
X202817676Y-76455337D01*
X202846490Y-76404779D01*
X202887236Y-76359752D01*
X202935971Y-76324049D01*
X202992469Y-76297976D01*
X203058192Y-76281622D01*
X203135020Y-76275854D01*
X203214916Y-76281700D01*
G37*
G36*
X203470000Y-77587866D02*
G01*
X203470000Y-77134551D01*
X203446552Y-77134551D01*
X203445148Y-77168135D01*
X203436965Y-77203407D01*
X203425608Y-77217044D01*
X203405644Y-77222737D01*
X203358564Y-77225471D01*
X203294267Y-77226875D01*
X202960448Y-77226875D01*
X202903173Y-77225532D01*
X202852859Y-77217105D01*
X202840683Y-77204894D01*
X202831915Y-77166730D01*
X202829106Y-77128995D01*
X202805659Y-77128995D01*
X202805659Y-77495542D01*
X203294023Y-77495542D01*
X203358381Y-77496946D01*
X203404425Y-77499625D01*
X203424876Y-77505312D01*
X203436785Y-77519062D01*
X203445148Y-77554282D01*
X203446552Y-77587866D01*
X203470000Y-77587866D01*
G37*
G36*
X202570453Y-77224127D02*
G01*
X202535571Y-77228591D01*
X202504775Y-77241704D01*
X202476969Y-77264000D01*
X202455426Y-77292496D01*
X202442672Y-77324094D01*
X202438318Y-77359865D01*
X202442570Y-77396618D01*
X202454925Y-77428649D01*
X202475565Y-77457074D01*
X202502568Y-77479169D01*
X202533758Y-77492375D01*
X202570453Y-77496946D01*
X202606305Y-77492442D01*
X202637566Y-77479290D01*
X202665403Y-77457074D01*
X202686876Y-77428550D01*
X202699665Y-77396525D01*
X202704054Y-77359865D01*
X202699700Y-77324094D01*
X202686946Y-77292496D01*
X202665403Y-77264000D01*
X202637566Y-77241784D01*
X202606305Y-77228632D01*
X202570453Y-77224127D01*
G37*
G36*
X202817383Y-78038433D02*
G01*
X202820786Y-78013714D01*
X202830802Y-77992078D01*
X202847974Y-77972670D01*
X202881366Y-77949446D01*
X202923079Y-77931393D01*
X202968808Y-77918981D01*
X203019738Y-77910450D01*
X203120549Y-77904160D01*
X203204048Y-77909251D01*
X203277020Y-77923753D01*
X203340978Y-77946842D01*
X203382484Y-77972622D01*
X203411075Y-78005316D01*
X203428594Y-78046029D01*
X203434829Y-78097234D01*
X203429396Y-78146783D01*
X203413491Y-78191120D01*
X203386835Y-78231507D01*
X203352265Y-78266383D01*
X203311935Y-78295218D01*
X203265141Y-78318213D01*
X203276254Y-78339218D01*
X203339959Y-78303215D01*
X203390405Y-78260252D01*
X203429344Y-78210053D01*
X203457692Y-78151653D01*
X203475455Y-78083474D01*
X203481723Y-78003445D01*
X203475563Y-77924923D01*
X203457708Y-77854393D01*
X203428549Y-77790471D01*
X203387751Y-77732091D01*
X203336915Y-77683076D01*
X203279548Y-77648561D01*
X203214324Y-77627488D01*
X203139234Y-77620167D01*
X203063265Y-77627390D01*
X202997409Y-77648143D01*
X202939654Y-77682027D01*
X202888640Y-77729954D01*
X202847746Y-77787312D01*
X202818349Y-77851154D01*
X202800227Y-77922695D01*
X202793935Y-78003506D01*
X202797368Y-78063611D01*
X202807185Y-78116774D01*
X202822998Y-78167245D01*
X202843517Y-78213982D01*
X202870806Y-78257602D01*
X202909096Y-78300750D01*
X202939464Y-78323894D01*
X202972375Y-78337446D01*
X203008869Y-78342027D01*
X203041912Y-78338236D01*
X203069158Y-78327471D01*
X203091912Y-78309848D01*
X203108594Y-78286475D01*
X203119342Y-78255531D01*
X203123297Y-78214715D01*
X203119105Y-78179714D01*
X203106579Y-78147106D01*
X203085073Y-78116041D01*
X203057353Y-78090838D01*
X203028701Y-78076671D01*
X202998122Y-78072016D01*
X202961377Y-78075851D01*
X202925887Y-78087404D01*
X202892039Y-78099415D01*
X202867452Y-78102791D01*
X202847216Y-78098567D01*
X202831304Y-78085999D01*
X202821184Y-78066777D01*
X202817383Y-78038433D01*
G37*
G36*
X203352894Y-78383406D02*
G01*
X203397096Y-78402117D01*
X203432997Y-78432702D01*
X203459473Y-78472539D01*
X203475902Y-78520337D01*
X203481723Y-78578210D01*
X203478195Y-78633706D01*
X203468487Y-78678540D01*
X203453574Y-78714619D01*
X203431601Y-78746285D01*
X203403665Y-78771035D01*
X203368944Y-78789480D01*
X203400828Y-78800035D01*
X203427944Y-78818584D01*
X203451132Y-78846083D01*
X203468005Y-78878518D01*
X203478221Y-78913965D01*
X203481723Y-78953183D01*
X203478811Y-79005189D01*
X203471221Y-79042698D01*
X203455172Y-79077453D01*
X203421762Y-79121711D01*
X203401048Y-79138670D01*
X203369739Y-79152446D01*
X203324222Y-79162081D01*
X203260012Y-79165797D01*
X203260012Y-79146257D01*
X203315064Y-79142682D01*
X203358503Y-79132946D01*
X203382536Y-79120969D01*
X203395378Y-79105630D01*
X203399658Y-79086051D01*
X203393239Y-79063158D01*
X203374501Y-79051125D01*
X203348009Y-79045135D01*
X203305929Y-79042698D01*
X202985605Y-79042698D01*
X202939653Y-79036703D01*
X202901248Y-79019442D01*
X202868550Y-78990500D01*
X202840830Y-78947566D01*
X202814964Y-78882724D01*
X202799279Y-78813544D01*
X202793935Y-78739105D01*
X202800117Y-78650832D01*
X202817719Y-78574273D01*
X202845837Y-78507562D01*
X202876031Y-78462568D01*
X202908748Y-78433072D01*
X202944472Y-78416074D01*
X202984567Y-78410354D01*
X203011752Y-78414363D01*
X203034511Y-78426028D01*
X203053993Y-78446013D01*
X203073285Y-78484250D01*
X203079883Y-78529239D01*
X203075378Y-78586363D01*
X203063620Y-78626676D01*
X203046360Y-78654474D01*
X203022051Y-78676454D01*
X202996760Y-78688855D01*
X202969607Y-78692943D01*
X202940343Y-78689305D01*
X202917852Y-78679204D01*
X202900486Y-78662840D01*
X202876978Y-78638551D01*
X202862079Y-78632798D01*
X202844605Y-78637326D01*
X202829961Y-78651666D01*
X202820695Y-78672238D01*
X202817383Y-78698560D01*
X202820573Y-78727265D01*
X202828767Y-78745823D01*
X202841074Y-78757301D01*
X202868939Y-78767125D01*
X202919049Y-78771284D01*
X203045811Y-78772688D01*
X203067911Y-78768523D01*
X203067968Y-78768475D01*
X203091057Y-78768475D01*
X203092461Y-78772688D01*
X203357831Y-78772688D01*
X203380215Y-78763704D01*
X203402283Y-78746798D01*
X203418020Y-78724681D01*
X203423105Y-78699965D01*
X203418958Y-78679475D01*
X203407071Y-78664962D01*
X203385614Y-78655146D01*
X203344929Y-78648134D01*
X203285535Y-78645376D01*
X203244252Y-78647315D01*
X203204324Y-78653070D01*
X203168541Y-78663208D01*
X203150835Y-78674014D01*
X203137986Y-78690529D01*
X203122320Y-78721580D01*
X203105995Y-78752243D01*
X203091057Y-78768475D01*
X203067968Y-78768475D01*
X203081287Y-78757301D01*
X203090516Y-78739074D01*
X203100826Y-78706193D01*
X203108629Y-78665433D01*
X203116824Y-78595001D01*
X203125217Y-78524480D01*
X203133555Y-78483077D01*
X203150177Y-78448864D01*
X203185762Y-78411758D01*
X203215882Y-78392881D01*
X203252674Y-78381014D01*
X203297869Y-78376770D01*
X203352894Y-78383406D01*
G37*
G36*
X203470000Y-79614105D02*
G01*
X203470000Y-79160790D01*
X203446552Y-79160790D01*
X203445148Y-79194373D01*
X203437014Y-79229645D01*
X203425669Y-79243283D01*
X203405705Y-79248975D01*
X203358625Y-79251709D01*
X203294389Y-79253114D01*
X202604708Y-79253114D01*
X202547494Y-79251770D01*
X202497241Y-79243344D01*
X202485066Y-79231133D01*
X202476297Y-79192969D01*
X202473489Y-79145403D01*
X202450041Y-79145403D01*
X202450041Y-79521781D01*
X203294206Y-79521781D01*
X203358503Y-79523185D01*
X203404485Y-79525865D01*
X203424876Y-79531550D01*
X203436785Y-79545300D01*
X203445148Y-79580521D01*
X203446552Y-79614105D01*
X203470000Y-79614105D01*
G37*
G36*
X203470000Y-80675401D02*
G01*
X203446552Y-80675401D01*
X203440935Y-80604082D01*
X203430963Y-80564981D01*
X203415655Y-80542472D01*
X203391907Y-80528612D01*
X203351114Y-80520123D01*
X203286512Y-80517315D01*
X202958066Y-80517315D01*
X202959471Y-80576055D01*
X202963896Y-80604477D01*
X202974248Y-80630582D01*
X202986522Y-80643541D01*
X203014827Y-80657297D01*
X203069197Y-80671188D01*
X203248593Y-80697016D01*
X203316455Y-80714090D01*
X203373020Y-80742105D01*
X203420235Y-80780975D01*
X203448199Y-80816726D01*
X203468492Y-80858074D01*
X203481168Y-80906093D01*
X203485631Y-80962203D01*
X203478679Y-81032857D01*
X203458276Y-81097147D01*
X203437364Y-81136767D01*
X203413518Y-81168349D01*
X203386774Y-81193012D01*
X203341861Y-81221069D01*
X203301899Y-81234961D01*
X203257744Y-81240999D01*
X203192540Y-81243387D01*
X203192540Y-81220978D01*
X203251837Y-81217829D01*
X203301289Y-81209071D01*
X203329319Y-81197397D01*
X203343993Y-81181594D01*
X203348855Y-81160833D01*
X203342478Y-81136249D01*
X203322782Y-81117480D01*
X203291712Y-81102725D01*
X203233878Y-81082493D01*
X203173116Y-81059710D01*
X203118229Y-81031385D01*
X203070503Y-80996822D01*
X203038483Y-80960737D01*
X203014999Y-80919619D01*
X202997573Y-80873299D01*
X202967958Y-80753742D01*
X202958066Y-80753742D01*
X202952225Y-80863242D01*
X202938527Y-80925139D01*
X202914721Y-80975332D01*
X202884122Y-81015326D01*
X202845858Y-81046893D01*
X202800347Y-81069181D01*
X202751139Y-81082389D01*
X202702650Y-81086706D01*
X202659781Y-81083203D01*
X202621698Y-81073088D01*
X202587550Y-81056603D01*
X202542264Y-81021554D01*
X202504508Y-80975453D01*
X202485492Y-80940046D01*
X202470402Y-80896490D01*
X202459811Y-80843257D01*
X202451766Y-80755978D01*
X202448637Y-80631987D01*
X202448894Y-80517315D01*
X202473489Y-80517315D01*
X202476297Y-80571842D01*
X202479918Y-80603478D01*
X202488876Y-80641817D01*
X202500629Y-80664431D01*
X202524820Y-80686721D01*
X202566423Y-80708984D01*
X202633732Y-80730045D01*
X202701245Y-80736950D01*
X202782456Y-80729908D01*
X202853592Y-80709656D01*
X202894725Y-80686939D01*
X202919034Y-80660374D01*
X202930406Y-80629239D01*
X202934619Y-80564881D01*
X202934619Y-80517315D01*
X202473489Y-80517315D01*
X202448894Y-80517315D01*
X202450041Y-80006664D01*
X202473489Y-80006664D01*
X202475626Y-80048613D01*
X202480511Y-80101796D01*
X202488489Y-80129772D01*
X202502798Y-80149363D01*
X202525101Y-80162136D01*
X202565629Y-80170307D01*
X202629865Y-80173115D01*
X203291580Y-80173115D01*
X203355816Y-80170307D01*
X203396256Y-80162277D01*
X203417915Y-80150034D01*
X203431647Y-80131475D01*
X203438859Y-80105949D01*
X203446552Y-80047208D01*
X203446552Y-80003855D01*
X203470000Y-80003855D01*
X203470000Y-80675401D01*
G37*
G36*
X203209397Y-81274149D02*
G01*
X203273210Y-81294361D01*
X203330908Y-81327792D01*
X203383599Y-81375584D01*
X203426168Y-81432491D01*
X203456589Y-81495497D01*
X203475259Y-81565784D01*
X203481723Y-81644923D01*
X203475444Y-81719512D01*
X203457063Y-81787771D01*
X203426677Y-81850948D01*
X203383599Y-81909987D01*
X203330645Y-81959864D01*
X203272862Y-81994572D01*
X203209150Y-82015474D01*
X203137829Y-82022644D01*
X203065679Y-82015510D01*
X203001607Y-81994778D01*
X202943890Y-81960483D01*
X202891388Y-81911392D01*
X202848798Y-81853117D01*
X202818604Y-81790010D01*
X202800239Y-81721058D01*
X202793935Y-81644923D01*
X202794051Y-81643518D01*
X202817383Y-81643518D01*
X202822725Y-81673160D01*
X202838316Y-81696670D01*
X202865926Y-81715570D01*
X202918406Y-81732371D01*
X202989391Y-81738651D01*
X203058756Y-81741460D01*
X203136425Y-81744269D01*
X203220383Y-81740055D01*
X203286268Y-81738651D01*
X203354906Y-81732286D01*
X203408328Y-81714837D01*
X203437095Y-81695541D01*
X203452958Y-81672661D01*
X203458276Y-81644923D01*
X203452992Y-81616201D01*
X203437458Y-81593125D01*
X203409733Y-81574275D01*
X203357252Y-81557475D01*
X203286268Y-81551195D01*
X203216231Y-81548386D01*
X203136425Y-81545577D01*
X203053932Y-81549057D01*
X202989391Y-81551195D01*
X202921843Y-81557494D01*
X202868002Y-81574947D01*
X202838670Y-81594276D01*
X202822685Y-81616740D01*
X202817383Y-81643518D01*
X202794051Y-81643518D01*
X202800341Y-81567310D01*
X202818925Y-81497692D01*
X202849353Y-81434615D01*
X202892121Y-81376988D01*
X202944868Y-81328515D01*
X203002574Y-81294664D01*
X203066342Y-81274223D01*
X203137829Y-81267201D01*
X203209397Y-81274149D01*
G37*
G36*
X202476297Y-82072775D02*
G01*
X202484061Y-82107623D01*
X202495165Y-82123822D01*
X202513196Y-82132171D01*
X202547555Y-82135729D01*
X202604830Y-82137133D01*
X203248960Y-82137133D01*
X203368456Y-82134996D01*
X203473907Y-82132920D01*
X203473907Y-82149712D01*
X203403260Y-82190989D01*
X203369446Y-82213273D01*
X203346901Y-82232266D01*
X203346901Y-82240631D01*
X203390480Y-82283567D01*
X203436782Y-82339977D01*
X203460556Y-82382399D01*
X203476039Y-82437259D01*
X203481723Y-82507894D01*
X203475386Y-82588741D01*
X203457208Y-82659614D01*
X203427832Y-82722213D01*
X203387079Y-82777843D01*
X203336260Y-82824054D01*
X203278355Y-82856920D01*
X203211954Y-82877148D01*
X203135020Y-82884211D01*
X203059018Y-82878431D01*
X202993629Y-82861995D01*
X202937056Y-82835704D01*
X202887908Y-82799581D01*
X202846745Y-82754179D01*
X202817735Y-82703583D01*
X202800055Y-82646722D01*
X202793935Y-82582021D01*
X202797929Y-82518382D01*
X202802181Y-82500872D01*
X202829106Y-82500872D01*
X202834254Y-82531666D01*
X202848964Y-82555317D01*
X202874352Y-82573595D01*
X202923785Y-82589831D01*
X202993360Y-82596004D01*
X203060893Y-82598813D01*
X203135326Y-82601622D01*
X203219590Y-82597409D01*
X203285657Y-82596004D01*
X203354588Y-82589638D01*
X203408206Y-82572191D01*
X203437052Y-82552886D01*
X203452949Y-82530005D01*
X203458276Y-82502276D01*
X203453034Y-82473511D01*
X203437655Y-82450439D01*
X203410282Y-82431629D01*
X203358360Y-82414816D01*
X203288466Y-82408548D01*
X203210491Y-82404335D01*
X203117252Y-82404335D01*
X202999649Y-82405739D01*
X202909157Y-82412700D01*
X202879513Y-82421841D01*
X202853469Y-82437918D01*
X202840489Y-82452703D01*
X202832183Y-82473059D01*
X202829106Y-82500872D01*
X202802181Y-82500872D01*
X202807865Y-82477464D01*
X202821474Y-82452573D01*
X202850147Y-82421963D01*
X202876428Y-82402930D01*
X202766580Y-82405739D01*
X202450041Y-82405739D01*
X202450041Y-82019591D01*
X202473489Y-82019591D01*
X202476297Y-82072775D01*
G37*
G36*
X203209397Y-82933047D02*
G01*
X203273210Y-82953259D01*
X203330908Y-82986689D01*
X203383599Y-83034481D01*
X203426168Y-83091389D01*
X203456589Y-83154394D01*
X203475259Y-83224681D01*
X203481723Y-83303820D01*
X203475444Y-83378410D01*
X203457063Y-83446669D01*
X203426677Y-83509846D01*
X203383599Y-83568885D01*
X203330645Y-83618761D01*
X203272862Y-83653470D01*
X203209150Y-83674372D01*
X203137829Y-83681542D01*
X203065679Y-83674408D01*
X203001607Y-83653675D01*
X202943890Y-83619381D01*
X202891388Y-83570289D01*
X202848798Y-83512014D01*
X202818604Y-83448907D01*
X202800239Y-83379955D01*
X202793935Y-83303820D01*
X202794051Y-83302416D01*
X202817383Y-83302416D01*
X202822725Y-83332058D01*
X202838316Y-83355567D01*
X202865926Y-83374467D01*
X202918406Y-83391268D01*
X202989391Y-83397548D01*
X203058756Y-83400357D01*
X203136425Y-83403166D01*
X203220383Y-83398953D01*
X203286268Y-83397548D01*
X203354906Y-83391184D01*
X203408328Y-83373735D01*
X203437095Y-83354438D01*
X203452958Y-83331558D01*
X203458276Y-83303820D01*
X203452992Y-83275098D01*
X203437458Y-83252022D01*
X203409733Y-83233173D01*
X203357252Y-83216372D01*
X203286268Y-83210092D01*
X203216231Y-83207283D01*
X203136425Y-83204474D01*
X203053932Y-83207955D01*
X202989391Y-83210092D01*
X202921843Y-83216392D01*
X202868002Y-83233845D01*
X202838670Y-83253174D01*
X202822685Y-83275638D01*
X202817383Y-83302416D01*
X202794051Y-83302416D01*
X202800341Y-83226208D01*
X202818925Y-83156589D01*
X202849353Y-83093513D01*
X202892121Y-83035886D01*
X202944868Y-82987412D01*
X203002574Y-82953562D01*
X203066342Y-82933121D01*
X203137829Y-82926099D01*
X203209397Y-82933047D01*
G37*
G36*
X202860369Y-83794626D02*
G01*
X202860369Y-83699494D01*
X202821474Y-83699494D01*
X202803882Y-83746627D01*
X202774213Y-83798778D01*
X202737358Y-83849039D01*
X202694467Y-83897452D01*
X202648348Y-83941508D01*
X202605624Y-83975793D01*
X202562645Y-84004630D01*
X202527222Y-84024031D01*
X202527222Y-84063232D01*
X202805659Y-84063232D01*
X202805659Y-84246536D01*
X202860369Y-84226936D01*
X202860369Y-84063232D01*
X203238885Y-84063232D01*
X203309837Y-84066041D01*
X203348918Y-84069441D01*
X203378342Y-84078605D01*
X203400329Y-84092602D01*
X203417418Y-84112042D01*
X203427475Y-84134123D01*
X203430921Y-84159769D01*
X203425688Y-84193515D01*
X203410862Y-84219446D01*
X203385736Y-84239515D01*
X203338330Y-84258315D01*
X203284802Y-84264733D01*
X203284802Y-84284272D01*
X203335361Y-84279033D01*
X203380823Y-84263702D01*
X203422372Y-84238110D01*
X203445357Y-84213038D01*
X203463849Y-84174807D01*
X203476745Y-84118879D01*
X203481723Y-84039480D01*
X203475976Y-83976671D01*
X203459236Y-83920191D01*
X203431592Y-83868754D01*
X203403579Y-83835960D01*
X203371419Y-83813215D01*
X203334312Y-83799424D01*
X203290847Y-83794626D01*
X202860369Y-83794626D01*
G37*
G36*
X203470000Y-84730504D02*
G01*
X203470000Y-84277189D01*
X203446552Y-84277189D01*
X203445148Y-84310772D01*
X203436965Y-84346045D01*
X203425608Y-84359682D01*
X203405644Y-84365374D01*
X203358564Y-84368108D01*
X203294267Y-84369513D01*
X202960448Y-84369513D01*
X202903173Y-84368169D01*
X202852859Y-84359743D01*
X202840683Y-84347532D01*
X202831915Y-84309368D01*
X202829106Y-84271632D01*
X202805659Y-84271632D01*
X202805659Y-84638180D01*
X203294023Y-84638180D01*
X203358381Y-84639584D01*
X203404425Y-84642263D01*
X203424876Y-84647950D01*
X203436785Y-84661700D01*
X203445148Y-84696920D01*
X203446552Y-84730504D01*
X203470000Y-84730504D01*
G37*
G36*
X202570453Y-84366765D02*
G01*
X202535571Y-84371229D01*
X202504775Y-84384342D01*
X202476969Y-84406638D01*
X202455426Y-84435134D01*
X202442672Y-84466732D01*
X202438318Y-84502503D01*
X202442570Y-84539256D01*
X202454925Y-84571287D01*
X202475565Y-84599712D01*
X202502568Y-84621807D01*
X202533758Y-84635013D01*
X202570453Y-84639584D01*
X202606305Y-84635080D01*
X202637566Y-84621927D01*
X202665403Y-84599712D01*
X202686876Y-84571188D01*
X202699665Y-84539163D01*
X202704054Y-84502503D01*
X202699700Y-84466732D01*
X202686946Y-84435134D01*
X202665403Y-84406638D01*
X202637566Y-84384422D01*
X202606305Y-84371270D01*
X202570453Y-84366765D01*
G37*
G36*
X202817383Y-85181071D02*
G01*
X202820786Y-85156352D01*
X202830802Y-85134716D01*
X202847974Y-85115308D01*
X202881366Y-85092084D01*
X202923079Y-85074031D01*
X202968808Y-85061618D01*
X203019738Y-85053087D01*
X203120549Y-85046798D01*
X203204048Y-85051889D01*
X203277020Y-85066391D01*
X203340978Y-85089480D01*
X203382484Y-85115260D01*
X203411075Y-85147954D01*
X203428594Y-85188667D01*
X203434829Y-85239872D01*
X203429396Y-85289421D01*
X203413491Y-85333757D01*
X203386835Y-85374145D01*
X203352265Y-85409021D01*
X203311935Y-85437856D01*
X203265141Y-85460851D01*
X203276254Y-85481856D01*
X203339959Y-85445853D01*
X203390405Y-85402889D01*
X203429344Y-85352691D01*
X203457692Y-85294291D01*
X203475455Y-85226112D01*
X203481723Y-85146083D01*
X203475563Y-85067561D01*
X203457708Y-84997031D01*
X203428549Y-84933109D01*
X203387751Y-84874729D01*
X203336915Y-84825714D01*
X203279548Y-84791199D01*
X203214324Y-84770126D01*
X203139234Y-84762805D01*
X203063265Y-84770028D01*
X202997409Y-84790781D01*
X202939654Y-84824665D01*
X202888640Y-84872592D01*
X202847746Y-84929950D01*
X202818349Y-84993792D01*
X202800227Y-85065333D01*
X202793935Y-85146144D01*
X202797368Y-85206249D01*
X202807185Y-85259412D01*
X202822998Y-85309883D01*
X202843517Y-85356620D01*
X202870806Y-85400240D01*
X202909096Y-85443387D01*
X202939464Y-85466531D01*
X202972375Y-85480083D01*
X203008869Y-85484665D01*
X203041912Y-85480874D01*
X203069158Y-85470109D01*
X203091912Y-85452486D01*
X203108594Y-85429113D01*
X203119342Y-85398169D01*
X203123297Y-85357353D01*
X203119105Y-85322351D01*
X203106579Y-85289744D01*
X203085073Y-85258679D01*
X203057353Y-85233476D01*
X203028701Y-85219309D01*
X202998122Y-85214654D01*
X202961377Y-85218488D01*
X202925887Y-85230041D01*
X202892039Y-85242053D01*
X202867452Y-85245429D01*
X202847216Y-85241205D01*
X202831304Y-85228637D01*
X202821184Y-85209415D01*
X202817383Y-85181071D01*
G37*
G36*
X203180816Y-85548778D02*
G01*
X203180816Y-85566974D01*
X203285949Y-85606260D01*
X203347756Y-85639698D01*
X203395672Y-85678921D01*
X203427745Y-85718771D01*
X203447368Y-85764842D01*
X203454368Y-85823002D01*
X203449523Y-85855936D01*
X203435500Y-85883147D01*
X203413128Y-85901954D01*
X203382988Y-85908365D01*
X203343479Y-85902914D01*
X203318630Y-85888764D01*
X203298326Y-85865667D01*
X203273140Y-85827154D01*
X203218613Y-85729945D01*
X203187736Y-85677449D01*
X203159872Y-85637622D01*
X203128779Y-85604326D01*
X203094781Y-85580225D01*
X203056288Y-85565189D01*
X203010823Y-85559952D01*
X202960690Y-85565127D01*
X202918252Y-85579900D01*
X202881887Y-85603999D01*
X202850600Y-85638293D01*
X202819705Y-85693024D01*
X202800620Y-85756241D01*
X202793935Y-85829963D01*
X202798637Y-85881988D01*
X202812559Y-85930713D01*
X202856461Y-86024441D01*
X202851147Y-86041873D01*
X202833136Y-86058025D01*
X202808270Y-86068382D01*
X202778304Y-86072008D01*
X202778304Y-86091608D01*
X203059672Y-86091608D01*
X203059672Y-86073412D01*
X202985483Y-86045446D01*
X202945526Y-86025482D01*
X202903539Y-85997147D01*
X202866028Y-85963867D01*
X202839792Y-85930713D01*
X202823385Y-85892389D01*
X202817383Y-85841137D01*
X202822405Y-85804704D01*
X202836311Y-85777512D01*
X202857825Y-85758987D01*
X202883267Y-85753026D01*
X202912864Y-85757677D01*
X202933825Y-85770490D01*
X202951437Y-85790556D01*
X202972355Y-85821598D01*
X203024256Y-85913250D01*
X203086416Y-86017480D01*
X203120726Y-86059851D01*
X203162254Y-86094417D01*
X203193630Y-86111409D01*
X203227933Y-86121674D01*
X203265935Y-86125191D01*
X203317799Y-86119727D01*
X203360877Y-86104233D01*
X203397052Y-86079077D01*
X203427440Y-86043309D01*
X203456991Y-85986500D01*
X203475307Y-85921149D01*
X203481723Y-85845350D01*
X203475801Y-85786136D01*
X203457848Y-85727869D01*
X203403565Y-85617349D01*
X203409626Y-85601500D01*
X203432203Y-85585170D01*
X203461690Y-85574012D01*
X203493447Y-85568379D01*
X203493447Y-85548778D01*
X203180816Y-85548778D01*
G37*
G36*
X203237494Y-86575828D02*
G01*
X203294190Y-86593000D01*
X203346301Y-86621506D01*
X203394712Y-86662281D01*
X203433560Y-86711025D01*
X203461767Y-86767680D01*
X203479410Y-86833776D01*
X203485631Y-86911348D01*
X203482223Y-86968560D01*
X203472228Y-87021992D01*
X203455833Y-87072182D01*
X203431939Y-87119187D01*
X203393553Y-87173323D01*
X203337131Y-87235947D01*
X203387179Y-87285086D01*
X203424501Y-87331804D01*
X203450949Y-87376509D01*
X203469916Y-87424713D01*
X203481596Y-87477827D01*
X203485631Y-87536732D01*
X203479992Y-87606210D01*
X203463668Y-87668299D01*
X203437012Y-87724309D01*
X203399658Y-87775235D01*
X203353539Y-87817061D01*
X203299582Y-87847151D01*
X203236229Y-87865893D01*
X203161277Y-87872505D01*
X203161277Y-87850095D01*
X203219537Y-87841229D01*
X203256980Y-87827609D01*
X203279673Y-87810894D01*
X203302410Y-87776235D01*
X203309776Y-87738171D01*
X203305611Y-87707627D01*
X203291851Y-87671997D01*
X203265812Y-87629727D01*
X203211315Y-87567640D01*
X203110169Y-87477930D01*
X203034148Y-87539480D01*
X202928086Y-87615744D01*
X202887756Y-87648208D01*
X202864347Y-87677244D01*
X202853408Y-87703855D01*
X202842967Y-87765404D01*
X202840830Y-87798316D01*
X202817383Y-87798316D01*
X202817383Y-87443004D01*
X202840830Y-87443004D01*
X202844982Y-87508766D01*
X202849517Y-87539122D01*
X202856156Y-87559813D01*
X202868194Y-87573696D01*
X202889556Y-87578681D01*
X202919476Y-87573063D01*
X202977178Y-87545097D01*
X203014558Y-87521471D01*
X203046788Y-87496798D01*
X203088492Y-87461139D01*
X203008598Y-87400534D01*
X202932665Y-87347810D01*
X202772625Y-87247121D01*
X202752313Y-87303405D01*
X202728879Y-87346450D01*
X202702772Y-87378646D01*
X202670768Y-87403883D01*
X202636646Y-87418502D01*
X202599335Y-87423403D01*
X202553567Y-87417025D01*
X202514564Y-87398430D01*
X202480572Y-87366739D01*
X202456196Y-87326401D01*
X202440283Y-87273290D01*
X202436416Y-87227520D01*
X202461765Y-87227520D01*
X202466254Y-87258097D01*
X202479133Y-87282784D01*
X202500966Y-87303053D01*
X202528374Y-87317157D01*
X202563227Y-87326325D01*
X202607395Y-87329675D01*
X202649536Y-87326160D01*
X202681156Y-87316716D01*
X202704665Y-87302381D01*
X202733651Y-87272339D01*
X202754368Y-87237351D01*
X202694983Y-87205053D01*
X202636765Y-87179282D01*
X202579292Y-87161415D01*
X202534549Y-87156202D01*
X202503915Y-87161655D01*
X202481366Y-87177145D01*
X202466693Y-87200170D01*
X202461765Y-87227520D01*
X202436416Y-87227520D01*
X202434410Y-87203768D01*
X202439905Y-87117062D01*
X202454990Y-87047444D01*
X202478090Y-86991827D01*
X202508415Y-86947679D01*
X202537011Y-86919713D01*
X202865743Y-86919713D01*
X202988793Y-86985969D01*
X203112672Y-87063817D01*
X203228979Y-87146888D01*
X203317592Y-87219155D01*
X203336338Y-87186976D01*
X203342395Y-87164480D01*
X203344947Y-87125427D01*
X203339300Y-87076282D01*
X203322333Y-87029657D01*
X203293132Y-86984461D01*
X203249692Y-86939986D01*
X203200016Y-86904930D01*
X203143691Y-86879507D01*
X203079498Y-86863695D01*
X203005877Y-86858164D01*
X202957348Y-86862708D01*
X202916240Y-86875628D01*
X202882666Y-86896586D01*
X202865743Y-86919713D01*
X202537011Y-86919713D01*
X202548661Y-86908320D01*
X202588344Y-86882222D01*
X202628105Y-86867284D01*
X202668883Y-86862377D01*
X202725429Y-86865591D01*
X202761695Y-86873551D01*
X202844738Y-86909944D01*
X202864912Y-86822926D01*
X202891875Y-86752885D01*
X202924698Y-86697054D01*
X202963012Y-86653183D01*
X203009902Y-86616563D01*
X203060268Y-86590823D01*
X203114918Y-86575274D01*
X203174954Y-86569958D01*
X203237494Y-86575828D01*
G37*
G36*
X202961974Y-89094452D02*
G01*
X202961974Y-88782493D01*
X203293900Y-88782493D01*
X203358319Y-88785301D01*
X203399951Y-88790127D01*
X203420662Y-88801360D01*
X203433093Y-88821891D01*
X203442339Y-88862177D01*
X203446552Y-88912552D01*
X203470000Y-88912552D01*
X203470000Y-88288633D01*
X203446552Y-88288633D01*
X203440996Y-88358548D01*
X203431396Y-88394983D01*
X203417243Y-88415212D01*
X203395181Y-88427530D01*
X203355816Y-88435484D01*
X203291580Y-88438293D01*
X202628461Y-88438293D01*
X202564225Y-88435484D01*
X202523586Y-88427812D01*
X202502126Y-88416617D01*
X202488666Y-88397279D01*
X202479045Y-88358548D01*
X202473489Y-88285825D01*
X202450041Y-88285825D01*
X202450041Y-88912552D01*
X202473489Y-88912552D01*
X202477702Y-88862177D01*
X202486198Y-88822072D01*
X202499439Y-88801360D01*
X202521165Y-88790034D01*
X202561782Y-88785301D01*
X202626263Y-88782493D01*
X202934619Y-88782493D01*
X202934619Y-89094452D01*
X202626263Y-89094452D01*
X202561782Y-89091643D01*
X202520002Y-89083817D01*
X202499439Y-89072714D01*
X202486990Y-89053548D01*
X202477702Y-89014706D01*
X202473489Y-88964331D01*
X202450041Y-88964331D01*
X202450041Y-89591120D01*
X202473489Y-89591120D01*
X202479045Y-89518335D01*
X202488639Y-89481943D01*
X202502798Y-89461671D01*
X202524853Y-89449386D01*
X202564225Y-89441399D01*
X202628461Y-89438590D01*
X203291580Y-89438590D01*
X203355816Y-89441399D01*
X203396418Y-89449099D01*
X203417915Y-89460266D01*
X203431380Y-89479647D01*
X203440996Y-89518335D01*
X203446552Y-89588311D01*
X203470000Y-89588311D01*
X203470000Y-88964331D01*
X203446552Y-88964331D01*
X203442339Y-89014706D01*
X203433154Y-89054758D01*
X203421334Y-89073447D01*
X203401305Y-89083941D01*
X203358319Y-89091643D01*
X203293900Y-89094452D01*
X202961974Y-89094452D01*
G37*
G36*
X203352894Y-89681103D02*
G01*
X203397096Y-89699814D01*
X203432997Y-89730399D01*
X203459473Y-89770236D01*
X203475902Y-89818034D01*
X203481723Y-89875907D01*
X203478195Y-89931403D01*
X203468487Y-89976237D01*
X203453574Y-90012316D01*
X203431601Y-90043982D01*
X203403665Y-90068732D01*
X203368944Y-90087177D01*
X203400828Y-90097732D01*
X203427944Y-90116281D01*
X203451132Y-90143780D01*
X203468005Y-90176215D01*
X203478221Y-90211662D01*
X203481723Y-90250881D01*
X203478811Y-90302886D01*
X203471221Y-90340396D01*
X203455172Y-90375150D01*
X203421762Y-90419408D01*
X203401048Y-90436367D01*
X203369739Y-90450143D01*
X203324222Y-90459778D01*
X203260012Y-90463494D01*
X203260012Y-90443954D01*
X203315064Y-90440379D01*
X203358503Y-90430643D01*
X203382536Y-90418666D01*
X203395378Y-90403328D01*
X203399658Y-90383749D01*
X203393239Y-90360855D01*
X203374501Y-90348822D01*
X203348009Y-90342832D01*
X203305929Y-90340396D01*
X202985605Y-90340396D01*
X202939653Y-90334401D01*
X202901248Y-90317139D01*
X202868550Y-90288197D01*
X202840830Y-90245263D01*
X202814964Y-90180421D01*
X202799279Y-90111241D01*
X202793935Y-90036802D01*
X202800117Y-89948529D01*
X202817719Y-89871970D01*
X202845837Y-89805259D01*
X202876031Y-89760265D01*
X202908748Y-89730769D01*
X202944472Y-89713772D01*
X202984567Y-89708051D01*
X203011752Y-89712060D01*
X203034511Y-89723725D01*
X203053993Y-89743710D01*
X203073285Y-89781948D01*
X203079883Y-89826936D01*
X203075378Y-89884060D01*
X203063620Y-89924373D01*
X203046360Y-89952172D01*
X203022051Y-89974152D01*
X202996760Y-89986552D01*
X202969607Y-89990640D01*
X202940343Y-89987002D01*
X202917852Y-89976901D01*
X202900486Y-89960537D01*
X202876978Y-89936248D01*
X202862079Y-89930495D01*
X202844605Y-89935023D01*
X202829961Y-89949363D01*
X202820695Y-89969935D01*
X202817383Y-89996257D01*
X202820573Y-90024962D01*
X202828767Y-90043521D01*
X202841074Y-90054998D01*
X202868939Y-90064822D01*
X202919049Y-90068981D01*
X203045811Y-90070385D01*
X203067911Y-90066220D01*
X203067968Y-90066172D01*
X203091057Y-90066172D01*
X203092461Y-90070385D01*
X203357831Y-90070385D01*
X203380215Y-90061401D01*
X203402283Y-90044495D01*
X203418020Y-90022378D01*
X203423105Y-89997662D01*
X203418958Y-89977173D01*
X203407071Y-89962659D01*
X203385614Y-89952843D01*
X203344929Y-89945832D01*
X203285535Y-89943073D01*
X203244252Y-89945012D01*
X203204324Y-89950767D01*
X203168541Y-89960905D01*
X203150835Y-89971711D01*
X203137986Y-89988226D01*
X203122320Y-90019277D01*
X203105995Y-90049940D01*
X203091057Y-90066172D01*
X203067968Y-90066172D01*
X203081287Y-90054998D01*
X203090516Y-90036771D01*
X203100826Y-90003890D01*
X203108629Y-89963130D01*
X203116824Y-89892698D01*
X203125217Y-89822177D01*
X203133555Y-89780774D01*
X203150177Y-89746561D01*
X203185762Y-89709455D01*
X203215882Y-89690578D01*
X203252674Y-89678711D01*
X203297869Y-89674467D01*
X203352894Y-89681103D01*
G37*
G36*
X203794354Y-90960772D02*
G01*
X203770907Y-90960772D01*
X203766693Y-90893606D01*
X203757378Y-90854768D01*
X203744834Y-90835537D01*
X203724028Y-90824489D01*
X203680781Y-90816669D01*
X203615996Y-90813860D01*
X203482212Y-90813860D01*
X203399108Y-90812456D01*
X203427018Y-90831350D01*
X203455162Y-90860022D01*
X203468105Y-90883600D01*
X203477772Y-90924372D01*
X203481723Y-90990143D01*
X203475607Y-91055643D01*
X203457994Y-91112844D01*
X203429198Y-91163380D01*
X203388483Y-91208374D01*
X203339715Y-91244107D01*
X203283195Y-91270198D01*
X203217461Y-91286562D01*
X203140638Y-91292332D01*
X203060745Y-91286482D01*
X202993206Y-91269990D01*
X202935920Y-91243881D01*
X202887236Y-91208374D01*
X202846487Y-91163346D01*
X202817673Y-91112797D01*
X202800053Y-91055606D01*
X202793935Y-90990143D01*
X202798306Y-90926804D01*
X202804184Y-90904780D01*
X202829106Y-90904780D01*
X202833786Y-90933144D01*
X202847261Y-90955499D01*
X202870566Y-90973351D01*
X202912963Y-90991473D01*
X202956174Y-91000645D01*
X203041109Y-91009743D01*
X203132395Y-91009743D01*
X203218002Y-91007606D01*
X203307883Y-90999912D01*
X203356682Y-90990210D01*
X203400512Y-90972679D01*
X203424440Y-90955271D01*
X203438004Y-90934011D01*
X203442644Y-90907588D01*
X203438062Y-90876925D01*
X203424387Y-90849520D01*
X203402315Y-90828950D01*
X203371020Y-90818073D01*
X203262943Y-90813860D01*
X203108520Y-90813860D01*
X203001114Y-90815265D01*
X202913370Y-90819478D01*
X202880915Y-90830111D01*
X202853714Y-90850924D01*
X202834872Y-90878193D01*
X202829106Y-90904780D01*
X202804184Y-90904780D01*
X202809236Y-90885853D01*
X202824405Y-90860694D01*
X202855991Y-90830214D01*
X202885282Y-90811051D01*
X202805659Y-90811051D01*
X202805659Y-90434734D01*
X202829106Y-90434734D01*
X202831915Y-90479492D01*
X202839584Y-90515630D01*
X202850111Y-90531943D01*
X202867742Y-90540232D01*
X202903295Y-90543850D01*
X202960631Y-90545254D01*
X203639382Y-90545254D01*
X203696718Y-90543850D01*
X203733475Y-90540362D01*
X203750573Y-90532615D01*
X203760567Y-90516990D01*
X203768098Y-90480896D01*
X203770907Y-90431926D01*
X203794354Y-90431926D01*
X203794354Y-90960772D01*
G37*
G36*
X202860369Y-91406210D02*
G01*
X202860369Y-91311078D01*
X202821474Y-91311078D01*
X202803882Y-91358211D01*
X202774213Y-91410362D01*
X202737358Y-91460623D01*
X202694467Y-91509036D01*
X202648348Y-91553092D01*
X202605624Y-91587377D01*
X202562645Y-91616215D01*
X202527222Y-91635615D01*
X202527222Y-91674816D01*
X202805659Y-91674816D01*
X202805659Y-91858121D01*
X202860369Y-91838520D01*
X202860369Y-91674816D01*
X203238885Y-91674816D01*
X203309837Y-91677625D01*
X203348918Y-91681025D01*
X203378342Y-91690189D01*
X203400329Y-91704187D01*
X203417418Y-91723626D01*
X203427475Y-91745707D01*
X203430921Y-91771353D01*
X203425688Y-91805099D01*
X203410862Y-91831030D01*
X203385736Y-91851099D01*
X203338330Y-91869899D01*
X203284802Y-91876317D01*
X203284802Y-91895856D01*
X203335361Y-91890617D01*
X203380823Y-91875286D01*
X203422372Y-91849694D01*
X203445357Y-91824622D01*
X203463849Y-91786391D01*
X203476745Y-91730464D01*
X203481723Y-91651064D01*
X203475976Y-91588255D01*
X203459236Y-91531775D01*
X203431592Y-91480338D01*
X203403579Y-91447544D01*
X203371419Y-91424799D01*
X203334312Y-91411008D01*
X203290847Y-91406210D01*
X202860369Y-91406210D01*
G37*
G36*
X203470000Y-92342088D02*
G01*
X203470000Y-91888773D01*
X203446552Y-91888773D01*
X203445148Y-91922356D01*
X203436965Y-91957629D01*
X203425608Y-91971266D01*
X203405644Y-91976959D01*
X203358564Y-91979692D01*
X203294267Y-91981097D01*
X202960448Y-91981097D01*
X202903173Y-91979754D01*
X202852859Y-91971327D01*
X202840683Y-91959116D01*
X202831915Y-91920952D01*
X202829106Y-91883217D01*
X202805659Y-91883217D01*
X202805659Y-92249764D01*
X203294023Y-92249764D01*
X203358381Y-92251168D01*
X203404425Y-92253847D01*
X203424876Y-92259534D01*
X203436785Y-92273284D01*
X203445148Y-92308504D01*
X203446552Y-92342088D01*
X203470000Y-92342088D01*
G37*
G36*
X202570453Y-91978349D02*
G01*
X202535571Y-91982813D01*
X202504775Y-91995926D01*
X202476969Y-92018222D01*
X202455426Y-92046718D01*
X202442672Y-92078316D01*
X202438318Y-92114087D01*
X202442570Y-92150840D01*
X202454925Y-92182871D01*
X202475565Y-92211296D01*
X202502568Y-92233391D01*
X202533758Y-92246597D01*
X202570453Y-92251168D01*
X202606305Y-92246664D01*
X202637566Y-92233511D01*
X202665403Y-92211296D01*
X202686876Y-92182772D01*
X202699665Y-92150747D01*
X202704054Y-92114087D01*
X202699700Y-92078316D01*
X202686946Y-92046718D01*
X202665403Y-92018222D01*
X202637566Y-91996006D01*
X202606305Y-91982854D01*
X202570453Y-91978349D01*
G37*
G36*
X202817383Y-92792655D02*
G01*
X202820786Y-92767936D01*
X202830802Y-92746300D01*
X202847974Y-92726892D01*
X202881366Y-92703668D01*
X202923079Y-92685615D01*
X202968808Y-92673203D01*
X203019738Y-92664672D01*
X203120549Y-92658382D01*
X203204048Y-92663473D01*
X203277020Y-92677975D01*
X203340978Y-92701064D01*
X203382484Y-92726844D01*
X203411075Y-92759538D01*
X203428594Y-92800251D01*
X203434829Y-92851456D01*
X203429396Y-92901005D01*
X203413491Y-92945342D01*
X203386835Y-92985729D01*
X203352265Y-93020605D01*
X203311935Y-93049440D01*
X203265141Y-93072435D01*
X203276254Y-93093440D01*
X203339959Y-93057437D01*
X203390405Y-93014473D01*
X203429344Y-92964275D01*
X203457692Y-92905875D01*
X203475455Y-92837696D01*
X203481723Y-92757667D01*
X203475563Y-92679145D01*
X203457708Y-92608615D01*
X203428549Y-92544693D01*
X203387751Y-92486313D01*
X203336915Y-92437298D01*
X203279548Y-92402783D01*
X203214324Y-92381710D01*
X203139234Y-92374389D01*
X203063265Y-92381612D01*
X202997409Y-92402365D01*
X202939654Y-92436249D01*
X202888640Y-92484176D01*
X202847746Y-92541534D01*
X202818349Y-92605376D01*
X202800227Y-92676917D01*
X202793935Y-92757728D01*
X202797368Y-92817833D01*
X202807185Y-92870996D01*
X202822998Y-92921467D01*
X202843517Y-92968204D01*
X202870806Y-93011824D01*
X202909096Y-93054972D01*
X202939464Y-93078115D01*
X202972375Y-93091668D01*
X203008869Y-93096249D01*
X203041912Y-93092458D01*
X203069158Y-93081693D01*
X203091912Y-93064070D01*
X203108594Y-93040697D01*
X203119342Y-93009753D01*
X203123297Y-92968937D01*
X203119105Y-92933936D01*
X203106579Y-92901328D01*
X203085073Y-92870263D01*
X203057353Y-92845060D01*
X203028701Y-92830893D01*
X202998122Y-92826238D01*
X202961377Y-92830072D01*
X202925887Y-92841625D01*
X202892039Y-92853637D01*
X202867452Y-92857013D01*
X202847216Y-92852789D01*
X202831304Y-92840221D01*
X202821184Y-92820999D01*
X202817383Y-92792655D01*
G37*
G36*
X203180816Y-93160362D02*
G01*
X203180816Y-93178558D01*
X203285949Y-93217844D01*
X203347756Y-93251282D01*
X203395672Y-93290505D01*
X203427745Y-93330355D01*
X203447368Y-93376426D01*
X203454368Y-93434586D01*
X203449523Y-93467520D01*
X203435500Y-93494731D01*
X203413128Y-93513538D01*
X203382988Y-93519949D01*
X203343479Y-93514498D01*
X203318630Y-93500348D01*
X203298326Y-93477251D01*
X203273140Y-93438738D01*
X203218613Y-93341530D01*
X203187736Y-93289033D01*
X203159872Y-93249206D01*
X203128779Y-93215910D01*
X203094781Y-93191809D01*
X203056288Y-93176773D01*
X203010823Y-93171536D01*
X202960690Y-93176711D01*
X202918252Y-93191484D01*
X202881887Y-93215583D01*
X202850600Y-93249877D01*
X202819705Y-93304608D01*
X202800620Y-93367825D01*
X202793935Y-93441547D01*
X202798637Y-93493572D01*
X202812559Y-93542297D01*
X202856461Y-93636025D01*
X202851147Y-93653457D01*
X202833136Y-93669609D01*
X202808270Y-93679966D01*
X202778304Y-93683592D01*
X202778304Y-93703192D01*
X203059672Y-93703192D01*
X203059672Y-93684996D01*
X202985483Y-93657030D01*
X202945526Y-93637066D01*
X202903539Y-93608731D01*
X202866028Y-93575451D01*
X202839792Y-93542297D01*
X202823385Y-93503973D01*
X202817383Y-93452721D01*
X202822405Y-93416288D01*
X202836311Y-93389096D01*
X202857825Y-93370571D01*
X202883267Y-93364610D01*
X202912864Y-93369261D01*
X202933825Y-93382074D01*
X202951437Y-93402140D01*
X202972355Y-93433182D01*
X203024256Y-93524834D01*
X203086416Y-93629064D01*
X203120726Y-93671435D01*
X203162254Y-93706001D01*
X203193630Y-93722993D01*
X203227933Y-93733259D01*
X203265935Y-93736775D01*
X203317799Y-93731311D01*
X203360877Y-93715817D01*
X203397052Y-93690661D01*
X203427440Y-93654893D01*
X203456991Y-93598084D01*
X203475307Y-93532733D01*
X203481723Y-93456934D01*
X203475801Y-93397721D01*
X203457848Y-93339453D01*
X203403565Y-93228934D01*
X203409626Y-93213084D01*
X203432203Y-93196755D01*
X203461690Y-93185596D01*
X203493447Y-93179963D01*
X203493447Y-93160362D01*
X203180816Y-93160362D01*
G37*
G36*
X204155626Y-74077669D02*
G01*
X204160511Y-74132196D01*
X204168457Y-74159591D01*
X204182798Y-74179091D01*
X204205101Y-74191864D01*
X204245629Y-74200034D01*
X204309865Y-74202843D01*
X204971580Y-74202843D01*
X205035816Y-74200034D01*
X205076256Y-74192004D01*
X205097915Y-74179762D01*
X205111547Y-74160920D01*
X205118859Y-74133600D01*
X205124476Y-74079684D01*
X205126552Y-74037796D01*
X205150000Y-74037796D01*
X205150000Y-74626727D01*
X205146865Y-74735089D01*
X205138021Y-74829506D01*
X205124232Y-74911453D01*
X205107132Y-74970033D01*
X205080417Y-75027946D01*
X205043259Y-75085696D01*
X204994478Y-75143667D01*
X204951524Y-75180936D01*
X204899501Y-75210978D01*
X204836860Y-75233668D01*
X204761611Y-75248275D01*
X204671406Y-75253515D01*
X204578418Y-75247935D01*
X204498192Y-75232132D01*
X204428868Y-75207142D01*
X204368880Y-75173475D01*
X204317009Y-75131088D01*
X204258240Y-75066075D01*
X204213480Y-75000206D01*
X204181297Y-74933026D01*
X204160755Y-74863886D01*
X204143915Y-74766906D01*
X204133572Y-74664236D01*
X204130314Y-74563834D01*
X204157397Y-74563834D01*
X204160205Y-74634481D01*
X204164898Y-74672937D01*
X204171379Y-74695359D01*
X204194118Y-74735676D01*
X204229641Y-74771744D01*
X204280722Y-74803937D01*
X204351386Y-74831707D01*
X204448054Y-74855572D01*
X204556109Y-74870561D01*
X204676962Y-74875793D01*
X204763284Y-74871813D01*
X204847896Y-74859931D01*
X204931158Y-74840134D01*
X205013834Y-74811683D01*
X205060693Y-74787030D01*
X205083871Y-74765945D01*
X205107309Y-74725705D01*
X205119591Y-74683391D01*
X205124730Y-74638206D01*
X205126552Y-74586182D01*
X205124598Y-74565177D01*
X205122644Y-74547042D01*
X204157397Y-74547042D01*
X204157397Y-74563834D01*
X204130314Y-74563834D01*
X204130041Y-74555408D01*
X204130041Y-74033583D01*
X204153489Y-74033583D01*
X204155626Y-74077669D01*
G37*
G36*
X204897043Y-75345145D02*
G01*
X204964128Y-75365544D01*
X205021426Y-75398400D01*
X205070560Y-75444269D01*
X205109635Y-75499674D01*
X205137960Y-75562418D01*
X205155568Y-75633846D01*
X205161723Y-75715683D01*
X205154886Y-75792220D01*
X205135145Y-75859727D01*
X205102861Y-75919931D01*
X205058883Y-75972165D01*
X205005068Y-76013946D01*
X204940012Y-76045839D01*
X204930303Y-76023429D01*
X204976853Y-76002697D01*
X205016865Y-75977296D01*
X205051081Y-75947226D01*
X205077147Y-75911424D01*
X205093391Y-75867214D01*
X205099197Y-75812220D01*
X205095626Y-75773112D01*
X205085501Y-75740152D01*
X205069216Y-75712142D01*
X205034803Y-75677077D01*
X204990326Y-75650593D01*
X204940544Y-75632394D01*
X204889148Y-75621222D01*
X204786566Y-75613529D01*
X204786566Y-76043030D01*
X204722346Y-76037491D01*
X204664739Y-76021402D01*
X204612489Y-75994979D01*
X204564672Y-75957667D01*
X204526327Y-75912342D01*
X204498177Y-75857601D01*
X204480319Y-75791506D01*
X204473935Y-75711470D01*
X204474630Y-75703105D01*
X204497383Y-75703105D01*
X204502500Y-75734866D01*
X204516877Y-75758420D01*
X204541285Y-75775828D01*
X204590676Y-75790773D01*
X204670062Y-75796833D01*
X204723002Y-75797505D01*
X204759211Y-75799642D01*
X204759211Y-75613529D01*
X204670062Y-75616338D01*
X204588206Y-75626979D01*
X204539881Y-75640762D01*
X204515918Y-75655812D01*
X204502192Y-75676041D01*
X204497383Y-75703105D01*
X204474630Y-75703105D01*
X204480199Y-75636030D01*
X204498439Y-75567767D01*
X204528423Y-75505343D01*
X204570717Y-75447749D01*
X204622764Y-75399468D01*
X204680411Y-75365606D01*
X204744841Y-75345055D01*
X204817829Y-75337962D01*
X204897043Y-75345145D01*
G37*
G36*
X204860816Y-76120027D02*
G01*
X204860816Y-76138224D01*
X204965949Y-76177509D01*
X205027756Y-76210947D01*
X205075672Y-76250171D01*
X205107745Y-76290020D01*
X205127368Y-76336091D01*
X205134368Y-76394251D01*
X205129523Y-76427185D01*
X205115500Y-76454396D01*
X205093128Y-76473203D01*
X205062988Y-76479614D01*
X205023479Y-76474163D01*
X204998630Y-76460013D01*
X204978326Y-76436916D01*
X204953140Y-76398403D01*
X204898613Y-76301195D01*
X204867736Y-76248698D01*
X204839872Y-76208871D01*
X204808779Y-76175576D01*
X204774781Y-76151474D01*
X204736288Y-76136438D01*
X204690823Y-76131202D01*
X204640690Y-76136376D01*
X204598252Y-76151149D01*
X204561887Y-76175248D01*
X204530600Y-76209542D01*
X204499705Y-76264273D01*
X204480620Y-76327490D01*
X204473935Y-76401212D01*
X204478637Y-76453238D01*
X204492559Y-76501962D01*
X204536461Y-76595690D01*
X204531147Y-76613122D01*
X204513136Y-76629274D01*
X204488270Y-76639631D01*
X204458304Y-76643257D01*
X204458304Y-76662857D01*
X204739672Y-76662857D01*
X204739672Y-76644661D01*
X204665483Y-76616695D01*
X204625526Y-76596731D01*
X204583539Y-76568396D01*
X204546028Y-76535117D01*
X204519792Y-76501962D01*
X204503385Y-76463638D01*
X204497383Y-76412386D01*
X204502405Y-76375954D01*
X204516311Y-76348761D01*
X204537825Y-76330236D01*
X204563267Y-76324275D01*
X204592864Y-76328926D01*
X204613825Y-76341739D01*
X204631437Y-76361805D01*
X204652355Y-76392847D01*
X204704256Y-76484499D01*
X204766416Y-76588729D01*
X204800726Y-76631100D01*
X204842254Y-76665666D01*
X204873630Y-76682658D01*
X204907933Y-76692924D01*
X204945935Y-76696441D01*
X204997799Y-76690976D01*
X205040877Y-76675482D01*
X205077052Y-76650326D01*
X205107440Y-76614558D01*
X205136991Y-76557749D01*
X205155307Y-76492398D01*
X205161723Y-76416599D01*
X205155801Y-76357386D01*
X205137848Y-76299118D01*
X205083565Y-76188599D01*
X205089626Y-76172749D01*
X205112203Y-76156420D01*
X205141690Y-76145261D01*
X205173447Y-76139628D01*
X205173447Y-76120027D01*
X204860816Y-76120027D01*
G37*
G36*
X205150000Y-77200008D02*
G01*
X205150000Y-76746693D01*
X205126552Y-76746693D01*
X205125148Y-76780277D01*
X205116965Y-76815549D01*
X205105608Y-76829187D01*
X205085644Y-76834879D01*
X205038564Y-76837613D01*
X204974267Y-76839017D01*
X204640448Y-76839017D01*
X204583173Y-76837674D01*
X204532859Y-76829248D01*
X204520683Y-76817037D01*
X204511915Y-76778872D01*
X204509106Y-76741137D01*
X204485659Y-76741137D01*
X204485659Y-77107684D01*
X204974023Y-77107684D01*
X205038381Y-77109089D01*
X205084425Y-77111768D01*
X205104876Y-77117454D01*
X205116785Y-77131204D01*
X205125148Y-77166425D01*
X205126552Y-77200008D01*
X205150000Y-77200008D01*
G37*
G36*
X204250453Y-76836270D02*
G01*
X204215571Y-76840734D01*
X204184775Y-76853846D01*
X204156969Y-76876142D01*
X204135426Y-76904639D01*
X204122672Y-76936237D01*
X204118318Y-76972008D01*
X204122570Y-77008761D01*
X204134925Y-77040792D01*
X204155565Y-77069216D01*
X204182568Y-77091311D01*
X204213758Y-77104518D01*
X204250453Y-77109089D01*
X204286305Y-77104584D01*
X204317566Y-77091432D01*
X204345403Y-77069216D01*
X204366876Y-77040693D01*
X204379665Y-77008668D01*
X204384054Y-76972008D01*
X204379700Y-76936237D01*
X204366946Y-76904639D01*
X204345403Y-76876142D01*
X204317566Y-76853926D01*
X204286305Y-76840774D01*
X204250453Y-76836270D01*
G37*
G36*
X205119168Y-77234576D02*
G01*
X205151304Y-77245116D01*
X205179370Y-77262351D01*
X205216327Y-77298643D01*
X205251605Y-77349790D01*
X205263689Y-77309171D01*
X205281646Y-77277739D01*
X205297872Y-77261753D01*
X205316928Y-77252348D01*
X205339776Y-77249101D01*
X205374348Y-77254725D01*
X205403027Y-77271197D01*
X205427388Y-77299969D01*
X205447487Y-77344905D01*
X205464040Y-77409523D01*
X205474554Y-77483489D01*
X205478262Y-77568082D01*
X205471407Y-77670283D01*
X205451815Y-77759870D01*
X205420437Y-77838764D01*
X205393662Y-77881668D01*
X205362786Y-77913450D01*
X205327533Y-77935775D01*
X205287027Y-77949415D01*
X205239881Y-77954169D01*
X205192416Y-77949734D01*
X205150243Y-77936870D01*
X205112293Y-77915694D01*
X205077826Y-77885598D01*
X205050270Y-77849615D01*
X205030212Y-77807871D01*
X205017652Y-77759264D01*
X205013224Y-77702355D01*
X205013224Y-77404378D01*
X205010189Y-77380306D01*
X205008505Y-77376352D01*
X205263328Y-77376352D01*
X205263328Y-77727573D01*
X205266953Y-77790800D01*
X205275907Y-77831071D01*
X205287459Y-77851485D01*
X205304183Y-77863265D01*
X205327747Y-77867463D01*
X205356697Y-77862763D01*
X205381340Y-77848872D01*
X205402901Y-77824467D01*
X205421475Y-77786313D01*
X205436826Y-77731352D01*
X205447110Y-77661046D01*
X205450907Y-77572234D01*
X205447487Y-77501755D01*
X205437724Y-77439352D01*
X205422208Y-77384045D01*
X205403993Y-77344633D01*
X205383945Y-77320142D01*
X205362119Y-77306663D01*
X205337517Y-77302224D01*
X205306926Y-77306948D01*
X205286409Y-77319687D01*
X205272637Y-77340873D01*
X205263328Y-77376352D01*
X205008505Y-77376352D01*
X205001378Y-77359621D01*
X204988137Y-77343691D01*
X204970237Y-77338616D01*
X204947409Y-77345095D01*
X204931463Y-77365177D01*
X204923103Y-77392455D01*
X204922060Y-77421170D01*
X204940647Y-77486430D01*
X204946789Y-77552634D01*
X204939373Y-77623079D01*
X204917724Y-77685919D01*
X204881638Y-77742899D01*
X204846167Y-77778655D01*
X204806421Y-77803641D01*
X204761515Y-77818801D01*
X204710057Y-77824049D01*
X204667339Y-77820529D01*
X204626709Y-77810066D01*
X204589508Y-77792938D01*
X204560153Y-77770926D01*
X204533854Y-77787454D01*
X204516006Y-77807257D01*
X204504605Y-77829642D01*
X204501290Y-77847862D01*
X204503480Y-77856560D01*
X204509106Y-77859036D01*
X204518116Y-77856507D01*
X204534874Y-77845725D01*
X204553006Y-77835690D01*
X204571632Y-77832475D01*
X204604151Y-77838547D01*
X204626587Y-77855556D01*
X204640500Y-77880825D01*
X204645333Y-77912220D01*
X204639553Y-77945643D01*
X204623046Y-77970961D01*
X204598170Y-77987685D01*
X204567297Y-77993370D01*
X204539871Y-77989932D01*
X204517514Y-77980155D01*
X204499031Y-77964000D01*
X204480600Y-77930926D01*
X204473935Y-77885659D01*
X204479433Y-77842087D01*
X204494940Y-77807318D01*
X204519400Y-77779319D01*
X204550811Y-77759752D01*
X204517684Y-77717708D01*
X204493852Y-77669973D01*
X204479093Y-77615457D01*
X204473935Y-77552695D01*
X204474043Y-77551290D01*
X204497383Y-77551290D01*
X204500914Y-77572625D01*
X204510876Y-77588473D01*
X204527913Y-77600200D01*
X204561366Y-77610284D01*
X204609795Y-77614183D01*
X204711034Y-77618396D01*
X204812334Y-77614183D01*
X204859466Y-77610119D01*
X204892812Y-77599467D01*
X204910070Y-77587449D01*
X204919930Y-77572192D01*
X204923342Y-77552634D01*
X204919893Y-77533127D01*
X204909848Y-77517626D01*
X204892140Y-77505129D01*
X204858270Y-77493927D01*
X204812334Y-77489741D01*
X204711034Y-77485528D01*
X204609795Y-77489741D01*
X204562571Y-77493770D01*
X204528646Y-77504396D01*
X204510919Y-77516504D01*
X204500852Y-77531789D01*
X204497383Y-77551290D01*
X204474043Y-77551290D01*
X204478221Y-77496822D01*
X204490654Y-77446489D01*
X204510955Y-77400757D01*
X204539331Y-77358888D01*
X204574869Y-77323521D01*
X204614781Y-77298750D01*
X204659967Y-77283690D01*
X204711828Y-77278471D01*
X204752754Y-77281791D01*
X204789358Y-77291405D01*
X204822409Y-77307109D01*
X204866267Y-77341098D01*
X204903803Y-77387587D01*
X204914693Y-77346770D01*
X204934125Y-77310205D01*
X204962726Y-77277067D01*
X204997735Y-77251451D01*
X205037014Y-77236158D01*
X205081917Y-77230905D01*
X205119168Y-77234576D01*
G37*
G36*
X204687709Y-78520507D02*
G01*
X204630190Y-78519103D01*
X204577172Y-78512975D01*
X204545113Y-78497590D01*
X204527153Y-78474718D01*
X204520830Y-78442166D01*
X204524686Y-78411120D01*
X204535113Y-78388801D01*
X204551666Y-78372923D01*
X204614802Y-78340073D01*
X204973717Y-78340073D01*
X205038197Y-78341477D01*
X205090325Y-78344910D01*
X205111165Y-78351919D01*
X205121540Y-78368543D01*
X205126552Y-78414200D01*
X205150000Y-78414200D01*
X205150000Y-77979082D01*
X205126552Y-77979082D01*
X205125148Y-78012665D01*
X205116963Y-78047991D01*
X205105608Y-78061636D01*
X205085648Y-78067287D01*
X205038564Y-78070001D01*
X204974267Y-78071406D01*
X204640448Y-78071406D01*
X204583173Y-78070001D01*
X204532859Y-78061636D01*
X204520683Y-78049425D01*
X204511915Y-78011261D01*
X204509106Y-77979082D01*
X204485659Y-77979082D01*
X204485659Y-78334455D01*
X204589523Y-78334455D01*
X204552772Y-78354892D01*
X204512709Y-78389715D01*
X204493387Y-78419348D01*
X204479500Y-78468134D01*
X204473935Y-78544321D01*
X204480353Y-78608603D01*
X204498974Y-78665409D01*
X204529745Y-78716329D01*
X204560443Y-78749600D01*
X204592109Y-78771864D01*
X204625259Y-78784794D01*
X204660781Y-78789113D01*
X204974572Y-78789113D01*
X205038686Y-78790518D01*
X205084561Y-78793196D01*
X205104937Y-78798883D01*
X205116836Y-78812681D01*
X205125148Y-78847915D01*
X205126552Y-78878689D01*
X205150000Y-78878689D01*
X205150000Y-78446379D01*
X205126552Y-78446379D01*
X205121399Y-78490812D01*
X205110432Y-78507929D01*
X205089111Y-78515484D01*
X205038197Y-78519103D01*
X204973717Y-78520507D01*
X204687709Y-78520507D01*
G37*
G36*
X204897043Y-78908159D02*
G01*
X204964128Y-78928559D01*
X205021426Y-78961415D01*
X205070560Y-79007283D01*
X205109635Y-79062688D01*
X205137960Y-79125432D01*
X205155568Y-79196861D01*
X205161723Y-79278698D01*
X205154886Y-79355235D01*
X205135145Y-79422741D01*
X205102861Y-79482946D01*
X205058883Y-79535179D01*
X205005068Y-79576961D01*
X204940012Y-79608853D01*
X204930303Y-79586444D01*
X204976853Y-79565711D01*
X205016865Y-79540311D01*
X205051081Y-79510240D01*
X205077147Y-79474439D01*
X205093391Y-79430229D01*
X205099197Y-79375235D01*
X205095626Y-79336126D01*
X205085501Y-79303167D01*
X205069216Y-79275157D01*
X205034803Y-79240092D01*
X204990326Y-79213607D01*
X204940544Y-79195408D01*
X204889148Y-79184237D01*
X204786566Y-79176543D01*
X204786566Y-79606045D01*
X204722346Y-79600506D01*
X204664739Y-79584417D01*
X204612489Y-79557993D01*
X204564672Y-79520682D01*
X204526327Y-79475356D01*
X204498177Y-79420615D01*
X204480319Y-79354521D01*
X204473935Y-79274485D01*
X204474630Y-79266120D01*
X204497383Y-79266120D01*
X204502500Y-79297881D01*
X204516877Y-79321435D01*
X204541285Y-79338843D01*
X204590676Y-79353788D01*
X204670062Y-79359848D01*
X204723002Y-79360519D01*
X204759211Y-79362657D01*
X204759211Y-79176543D01*
X204670062Y-79179352D01*
X204588206Y-79189993D01*
X204539881Y-79203777D01*
X204515918Y-79218826D01*
X204502192Y-79239055D01*
X204497383Y-79266120D01*
X204474630Y-79266120D01*
X204480199Y-79199045D01*
X204498439Y-79130782D01*
X204528423Y-79068358D01*
X204570717Y-79010764D01*
X204622764Y-78962483D01*
X204680411Y-78928621D01*
X204744841Y-78908070D01*
X204817829Y-78900976D01*
X204897043Y-78908159D01*
G37*
G36*
X204894916Y-79648343D02*
G01*
X204962467Y-79664823D01*
X205019774Y-79690914D01*
X205068483Y-79726395D01*
X205109200Y-79771418D01*
X205137996Y-79821975D01*
X205155608Y-79879187D01*
X205161723Y-79944687D01*
X205157792Y-80008334D01*
X205148023Y-80049203D01*
X205134673Y-80074014D01*
X205106360Y-80104691D01*
X205080451Y-80123717D01*
X205150000Y-80123717D01*
X205150000Y-80500095D01*
X205126552Y-80500095D01*
X205123743Y-80455338D01*
X205116116Y-80421458D01*
X205104937Y-80404230D01*
X205086708Y-80394895D01*
X205052486Y-80390980D01*
X204995150Y-80389576D01*
X204130041Y-80389576D01*
X204130041Y-79978271D01*
X204153489Y-79978271D01*
X204157702Y-80044033D01*
X204166883Y-80085323D01*
X204178646Y-80104178D01*
X204198494Y-80113869D01*
X204240195Y-80118161D01*
X204304553Y-80120969D01*
X204483644Y-80120969D01*
X204556367Y-80122313D01*
X204528530Y-80103417D01*
X204500497Y-80074747D01*
X204487552Y-80051169D01*
X204481877Y-80027241D01*
X204513014Y-80027241D01*
X204517653Y-80059007D01*
X204531210Y-80085982D01*
X204553098Y-80106024D01*
X204584272Y-80116756D01*
X204687709Y-80120969D01*
X204816303Y-80120969D01*
X204938607Y-80119565D01*
X205052486Y-80115352D01*
X205085707Y-80104613D01*
X205107899Y-80086848D01*
X205121542Y-80061502D01*
X205126552Y-80025837D01*
X205121880Y-79998508D01*
X205108334Y-79976814D01*
X205084665Y-79959342D01*
X205039127Y-79942133D01*
X204977015Y-79931376D01*
X204884752Y-79925087D01*
X204821859Y-79925087D01*
X204742908Y-79926491D01*
X204647897Y-79934185D01*
X204597526Y-79944540D01*
X204554230Y-79962151D01*
X204530886Y-79979492D01*
X204517582Y-80000746D01*
X204513014Y-80027241D01*
X204481877Y-80027241D01*
X204477886Y-80010414D01*
X204473935Y-79944687D01*
X204480054Y-79879191D01*
X204497676Y-79821980D01*
X204526490Y-79771422D01*
X204567236Y-79726395D01*
X204615971Y-79690692D01*
X204672469Y-79664620D01*
X204738192Y-79648266D01*
X204815020Y-79642498D01*
X204894916Y-79648343D01*
G37*
G36*
X204155626Y-80917445D02*
G01*
X204160511Y-80971973D01*
X204168457Y-80999368D01*
X204182798Y-81018867D01*
X204205101Y-81031640D01*
X204245629Y-81039811D01*
X204309865Y-81042620D01*
X204971580Y-81042620D01*
X205035816Y-81039811D01*
X205076256Y-81031781D01*
X205097915Y-81019539D01*
X205111647Y-81000979D01*
X205118859Y-80975453D01*
X205126552Y-80918117D01*
X205126552Y-80874764D01*
X205148595Y-80874764D01*
X205150000Y-81558888D01*
X205145847Y-81716913D01*
X205139930Y-81777112D01*
X205128796Y-81827980D01*
X205113119Y-81870847D01*
X205090799Y-81910247D01*
X205061958Y-81944589D01*
X205026046Y-81974345D01*
X204985208Y-81996326D01*
X204937006Y-82010083D01*
X204879745Y-82014951D01*
X204820488Y-82010170D01*
X204771686Y-81996808D01*
X204731367Y-81975750D01*
X204695620Y-81947082D01*
X204669882Y-81917092D01*
X204652660Y-81885502D01*
X204634975Y-81834044D01*
X204624145Y-81783408D01*
X204618711Y-81725933D01*
X204616451Y-81630207D01*
X204605399Y-81630207D01*
X204601372Y-81713500D01*
X204590683Y-81776386D01*
X204569157Y-81834393D01*
X204531088Y-81895333D01*
X204506521Y-81920234D01*
X204474976Y-81938634D01*
X204434846Y-81950489D01*
X204383871Y-81954806D01*
X204338747Y-81951486D01*
X204299567Y-81942017D01*
X204265352Y-81926840D01*
X204219874Y-81893678D01*
X204181943Y-81849171D01*
X204162768Y-81814707D01*
X204148139Y-81773803D01*
X204138468Y-81725340D01*
X204131450Y-81643983D01*
X204128637Y-81519687D01*
X204128926Y-81386819D01*
X204153489Y-81386819D01*
X204156297Y-81444827D01*
X204159673Y-81478262D01*
X204167533Y-81516207D01*
X204178564Y-81538177D01*
X204202272Y-81559544D01*
X204244042Y-81580565D01*
X204311885Y-81599980D01*
X204382222Y-81606454D01*
X204466570Y-81601055D01*
X204528218Y-81586854D01*
X204561806Y-81569138D01*
X204584199Y-81543565D01*
X204596973Y-81508513D01*
X204606132Y-81440675D01*
X204606228Y-81432981D01*
X204630251Y-81432981D01*
X204630983Y-81470045D01*
X204637212Y-81539288D01*
X204646632Y-81565169D01*
X204670345Y-81590329D01*
X204714392Y-81615491D01*
X204762926Y-81633110D01*
X204811690Y-81643534D01*
X204861121Y-81646999D01*
X204943364Y-81641866D01*
X205021100Y-81626727D01*
X205068662Y-81608239D01*
X205095841Y-81586067D01*
X205108722Y-81560293D01*
X205120568Y-81487508D01*
X205122644Y-81403611D01*
X205122644Y-81386819D01*
X204630251Y-81386819D01*
X204630251Y-81432981D01*
X204606228Y-81432981D01*
X204606803Y-81386819D01*
X204153489Y-81386819D01*
X204128926Y-81386819D01*
X204130041Y-80873360D01*
X204153489Y-80873360D01*
X204155626Y-80917445D01*
G37*
G36*
X204582074Y-82158077D02*
G01*
X204532309Y-82130050D01*
X204520179Y-82117145D01*
X204513319Y-82100741D01*
X204509106Y-82046153D01*
X204485659Y-82046153D01*
X204485659Y-82503620D01*
X204509106Y-82503620D01*
X204509106Y-82482615D01*
X204512648Y-82453916D01*
X204520824Y-82441299D01*
X204541407Y-82436453D01*
X204570167Y-82442009D01*
X204604544Y-82453244D01*
X204865518Y-82562360D01*
X204755364Y-82607117D01*
X204625610Y-82656088D01*
X204575473Y-82670677D01*
X204548368Y-82674284D01*
X204531867Y-82672420D01*
X204523150Y-82667995D01*
X204517662Y-82658663D01*
X204511915Y-82633740D01*
X204509106Y-82588982D01*
X204485659Y-82588982D01*
X204485659Y-82822601D01*
X204509106Y-82822601D01*
X204509839Y-82805137D01*
X204514724Y-82771554D01*
X204523008Y-82749201D01*
X204539942Y-82730277D01*
X204573024Y-82711762D01*
X204677267Y-82667995D01*
X204923831Y-82570054D01*
X205054834Y-82515180D01*
X205194146Y-82452512D01*
X205324036Y-82385319D01*
X205404317Y-82330818D01*
X205435008Y-82300046D01*
X205456590Y-82265132D01*
X205469769Y-82225241D01*
X205474354Y-82179082D01*
X205470233Y-82143041D01*
X205457881Y-82109011D01*
X205436680Y-82076195D01*
X205408847Y-82050010D01*
X205376791Y-82034639D01*
X205339043Y-82029361D01*
X205303363Y-82033645D01*
X205272097Y-82046142D01*
X205244155Y-82067158D01*
X205222610Y-82094422D01*
X205209644Y-82126131D01*
X205205137Y-82163633D01*
X205209378Y-82202261D01*
X205221203Y-82232899D01*
X205240186Y-82257362D01*
X205265215Y-82276147D01*
X205292525Y-82287197D01*
X205322984Y-82290945D01*
X205367078Y-82283982D01*
X205400165Y-82264384D01*
X205427540Y-82241670D01*
X205435275Y-82237822D01*
X205432466Y-82264384D01*
X205413357Y-82293224D01*
X205379099Y-82323857D01*
X205297705Y-82374904D01*
X205198115Y-82422470D01*
X205017803Y-82346205D01*
X204781376Y-82245516D01*
X204582074Y-82158077D01*
G37*
G36*
X205026229Y-82854474D02*
G01*
X204990651Y-82859023D01*
X204959359Y-82872365D01*
X204931219Y-82895019D01*
X204909432Y-82924031D01*
X204896502Y-82956330D01*
X204892079Y-82993021D01*
X204896416Y-83029740D01*
X204909109Y-83062259D01*
X204930486Y-83091634D01*
X204958296Y-83114629D01*
X204989795Y-83128240D01*
X205026229Y-83132911D01*
X205062694Y-83128321D01*
X205094434Y-83114925D01*
X205122644Y-83092306D01*
X205144324Y-83063309D01*
X205157270Y-83030605D01*
X205161723Y-82993021D01*
X205157306Y-82956326D01*
X205144395Y-82924026D01*
X205122644Y-82895019D01*
X205094439Y-82872436D01*
X205062698Y-82859059D01*
X205026229Y-82854474D01*
G37*
G36*
X204619809Y-82854474D02*
G01*
X204584231Y-82859023D01*
X204552939Y-82872365D01*
X204524799Y-82895019D01*
X204503012Y-82924031D01*
X204490082Y-82956330D01*
X204485659Y-82993021D01*
X204489995Y-83029740D01*
X204502689Y-83062259D01*
X204524066Y-83091634D01*
X204551876Y-83114629D01*
X204583375Y-83128240D01*
X204619809Y-83132911D01*
X204656274Y-83128321D01*
X204688014Y-83114925D01*
X204716224Y-83092306D01*
X204737904Y-83063309D01*
X204750850Y-83030605D01*
X204755303Y-82993021D01*
X204750886Y-82956326D01*
X204737975Y-82924026D01*
X204716224Y-82895019D01*
X204688019Y-82872436D01*
X204656278Y-82859059D01*
X204619809Y-82854474D01*
G37*
G36*
X206845631Y-74619766D02*
G01*
X206839250Y-74523809D01*
X206820818Y-74437617D01*
X206790982Y-74359747D01*
X206749805Y-74289009D01*
X206696765Y-74224520D01*
X206634014Y-74168851D01*
X206565906Y-74126062D01*
X206491659Y-74095330D01*
X206410159Y-74076474D01*
X206320020Y-74069975D01*
X206227264Y-74076519D01*
X206144309Y-74095406D01*
X206069629Y-74126008D01*
X206001993Y-74168364D01*
X205940528Y-74223176D01*
X205888658Y-74286939D01*
X205848264Y-74357270D01*
X205818906Y-74435088D01*
X205800720Y-74521624D01*
X205794410Y-74618361D01*
X205798549Y-74686737D01*
X205810293Y-74745990D01*
X205828909Y-74797452D01*
X205911646Y-74945769D01*
X205908068Y-74972027D01*
X205898513Y-74989893D01*
X205883253Y-75001700D01*
X205851534Y-75012914D01*
X205802226Y-75021301D01*
X205802226Y-75049267D01*
X206243817Y-75049267D01*
X206243817Y-75025453D01*
X206013251Y-74938014D01*
X205975063Y-74917853D01*
X205936485Y-74889562D01*
X205897236Y-74851980D01*
X205866596Y-74808976D01*
X205847870Y-74758390D01*
X205841304Y-74698107D01*
X205846617Y-74652669D01*
X205862078Y-74612959D01*
X205887984Y-74577583D01*
X205925930Y-74545802D01*
X205978630Y-74517611D01*
X206071907Y-74485852D01*
X206178151Y-74465881D01*
X206299443Y-74458871D01*
X206398751Y-74463661D01*
X206488214Y-74477447D01*
X206568960Y-74499540D01*
X206641994Y-74529518D01*
X206697073Y-74562539D01*
X206737153Y-74599331D01*
X206764761Y-74640046D01*
X206781320Y-74685534D01*
X206787013Y-74737247D01*
X206780952Y-74799081D01*
X206763514Y-74852713D01*
X206734956Y-74899818D01*
X206694384Y-74941495D01*
X206646599Y-74975521D01*
X206591155Y-75004059D01*
X206527017Y-75026923D01*
X206452950Y-75043649D01*
X206457163Y-75067463D01*
X206539235Y-75051659D01*
X206612100Y-75025106D01*
X206677098Y-74988057D01*
X206735233Y-74940151D01*
X206773055Y-74895637D01*
X206803325Y-74842853D01*
X206825998Y-74780472D01*
X206840475Y-74706784D01*
X206845631Y-74619766D01*
G37*
G36*
X206569397Y-75137792D02*
G01*
X206633210Y-75158004D01*
X206690908Y-75191435D01*
X206743599Y-75239227D01*
X206786168Y-75296134D01*
X206816589Y-75359139D01*
X206835259Y-75429427D01*
X206841723Y-75508565D01*
X206835444Y-75583155D01*
X206817063Y-75651414D01*
X206786677Y-75714591D01*
X206743599Y-75773630D01*
X206690645Y-75823507D01*
X206632862Y-75858215D01*
X206569150Y-75879117D01*
X206497829Y-75886287D01*
X206425679Y-75879153D01*
X206361607Y-75858420D01*
X206303890Y-75824126D01*
X206251388Y-75775034D01*
X206208798Y-75716760D01*
X206178604Y-75653652D01*
X206160239Y-75584700D01*
X206153935Y-75508565D01*
X206154051Y-75507161D01*
X206177383Y-75507161D01*
X206182725Y-75536803D01*
X206198316Y-75560313D01*
X206225926Y-75579213D01*
X206278406Y-75596014D01*
X206349391Y-75602294D01*
X206418756Y-75605102D01*
X206496425Y-75607911D01*
X206580383Y-75603698D01*
X206646268Y-75602294D01*
X206714906Y-75595929D01*
X206768328Y-75578480D01*
X206797095Y-75559184D01*
X206812958Y-75536303D01*
X206818276Y-75508565D01*
X206812992Y-75479844D01*
X206797458Y-75456767D01*
X206769733Y-75437918D01*
X206717252Y-75421117D01*
X206646268Y-75414837D01*
X206576231Y-75412028D01*
X206496425Y-75409220D01*
X206413932Y-75412700D01*
X206349391Y-75414837D01*
X206281843Y-75421137D01*
X206228002Y-75438590D01*
X206198670Y-75457919D01*
X206182685Y-75480383D01*
X206177383Y-75507161D01*
X206154051Y-75507161D01*
X206160341Y-75430953D01*
X206178925Y-75361334D01*
X206209353Y-75298258D01*
X206252121Y-75240631D01*
X206304868Y-75192158D01*
X206362574Y-75158307D01*
X206426342Y-75137866D01*
X206497829Y-75130844D01*
X206569397Y-75137792D01*
G37*
G36*
X206367709Y-76461051D02*
G01*
X206310190Y-76459647D01*
X206257172Y-76453519D01*
X206225113Y-76438135D01*
X206207153Y-76415263D01*
X206200830Y-76382711D01*
X206204686Y-76351664D01*
X206215113Y-76329346D01*
X206231666Y-76313468D01*
X206294802Y-76280617D01*
X206653717Y-76280617D01*
X206718197Y-76282021D01*
X206770325Y-76285454D01*
X206791165Y-76292463D01*
X206801540Y-76309087D01*
X206806552Y-76354745D01*
X206830000Y-76354745D01*
X206830000Y-75919626D01*
X206806552Y-75919626D01*
X206805148Y-75953210D01*
X206796963Y-75988536D01*
X206785608Y-76002180D01*
X206765648Y-76007831D01*
X206718564Y-76010546D01*
X206654267Y-76011950D01*
X206320448Y-76011950D01*
X206263173Y-76010546D01*
X206212859Y-76002180D01*
X206200683Y-75989969D01*
X206191915Y-75951805D01*
X206189106Y-75919626D01*
X206165659Y-75919626D01*
X206165659Y-76275000D01*
X206269523Y-76275000D01*
X206232772Y-76295436D01*
X206192709Y-76330259D01*
X206173387Y-76359892D01*
X206159500Y-76408678D01*
X206153935Y-76484865D01*
X206160353Y-76549147D01*
X206178974Y-76605953D01*
X206209745Y-76656873D01*
X206240443Y-76690144D01*
X206272109Y-76712408D01*
X206305259Y-76725338D01*
X206340781Y-76729658D01*
X206654572Y-76729658D01*
X206718686Y-76731062D01*
X206764561Y-76733741D01*
X206784937Y-76739427D01*
X206796836Y-76753225D01*
X206805148Y-76788459D01*
X206806552Y-76819234D01*
X206830000Y-76819234D01*
X206830000Y-76386924D01*
X206806552Y-76386924D01*
X206801399Y-76431357D01*
X206790432Y-76448473D01*
X206769111Y-76456029D01*
X206718197Y-76459647D01*
X206653717Y-76461051D01*
X206367709Y-76461051D01*
G37*
G36*
X206367709Y-77374520D02*
G01*
X206310190Y-77373115D01*
X206257172Y-77366987D01*
X206225113Y-77351603D01*
X206207153Y-77328731D01*
X206200830Y-77296179D01*
X206204686Y-77265133D01*
X206215113Y-77242814D01*
X206231666Y-77226936D01*
X206294802Y-77194085D01*
X206653717Y-77194085D01*
X206718197Y-77195490D01*
X206770325Y-77198922D01*
X206791165Y-77205931D01*
X206801540Y-77222555D01*
X206806552Y-77268213D01*
X206830000Y-77268213D01*
X206830000Y-76833094D01*
X206806552Y-76833094D01*
X206805148Y-76866678D01*
X206796963Y-76902004D01*
X206785608Y-76915648D01*
X206765648Y-76921299D01*
X206718564Y-76924014D01*
X206654267Y-76925418D01*
X206320448Y-76925418D01*
X206263173Y-76924014D01*
X206212859Y-76915648D01*
X206200683Y-76903438D01*
X206191915Y-76865273D01*
X206189106Y-76833094D01*
X206165659Y-76833094D01*
X206165659Y-77188468D01*
X206269523Y-77188468D01*
X206232772Y-77208904D01*
X206192709Y-77243728D01*
X206173387Y-77273360D01*
X206159500Y-77322146D01*
X206153935Y-77398333D01*
X206160353Y-77462615D01*
X206178974Y-77519422D01*
X206209745Y-77570341D01*
X206240443Y-77603612D01*
X206272109Y-77625877D01*
X206305259Y-77638806D01*
X206340781Y-77643126D01*
X206654572Y-77643126D01*
X206718686Y-77644530D01*
X206764561Y-77647209D01*
X206784937Y-77652896D01*
X206796836Y-77666694D01*
X206805148Y-77701927D01*
X206806552Y-77732702D01*
X206830000Y-77732702D01*
X206830000Y-77300392D01*
X206806552Y-77300392D01*
X206801399Y-77344825D01*
X206790432Y-77361941D01*
X206769111Y-77369497D01*
X206718197Y-77373115D01*
X206653717Y-77374520D01*
X206367709Y-77374520D01*
G37*
G36*
X206569397Y-77761937D02*
G01*
X206633210Y-77782149D01*
X206690908Y-77815580D01*
X206743599Y-77863372D01*
X206786168Y-77920279D01*
X206816589Y-77983285D01*
X206835259Y-78053572D01*
X206841723Y-78132711D01*
X206835444Y-78207300D01*
X206817063Y-78275559D01*
X206786677Y-78338736D01*
X206743599Y-78397775D01*
X206690645Y-78447652D01*
X206632862Y-78482360D01*
X206569150Y-78503262D01*
X206497829Y-78510432D01*
X206425679Y-78503298D01*
X206361607Y-78482566D01*
X206303890Y-78448271D01*
X206251388Y-78399180D01*
X206208798Y-78340905D01*
X206178604Y-78277797D01*
X206160239Y-78208845D01*
X206153935Y-78132711D01*
X206154051Y-78131306D01*
X206177383Y-78131306D01*
X206182725Y-78160948D01*
X206198316Y-78184458D01*
X206225926Y-78203358D01*
X206278406Y-78220159D01*
X206349391Y-78226439D01*
X206418756Y-78229248D01*
X206496425Y-78232056D01*
X206580383Y-78227843D01*
X206646268Y-78226439D01*
X206714906Y-78220074D01*
X206768328Y-78202625D01*
X206797095Y-78183329D01*
X206812958Y-78160448D01*
X206818276Y-78132711D01*
X206812992Y-78103989D01*
X206797458Y-78080912D01*
X206769733Y-78062063D01*
X206717252Y-78045263D01*
X206646268Y-78038982D01*
X206576231Y-78036174D01*
X206496425Y-78033365D01*
X206413932Y-78036845D01*
X206349391Y-78038982D01*
X206281843Y-78045282D01*
X206228002Y-78062735D01*
X206198670Y-78082064D01*
X206182685Y-78104528D01*
X206177383Y-78131306D01*
X206154051Y-78131306D01*
X206160341Y-78055098D01*
X206178925Y-77985480D01*
X206209353Y-77922403D01*
X206252121Y-77864776D01*
X206304868Y-77816303D01*
X206362574Y-77782452D01*
X206426342Y-77762011D01*
X206497829Y-77754989D01*
X206569397Y-77761937D01*
G37*
G36*
X206830000Y-78539558D02*
G01*
X206806552Y-78539558D01*
X206805148Y-78577355D01*
X206796963Y-78612681D01*
X206785608Y-78626325D01*
X206765648Y-78631976D01*
X206718564Y-78634691D01*
X206654267Y-78636095D01*
X206320448Y-78636095D01*
X206263173Y-78634691D01*
X206212859Y-78626325D01*
X206200683Y-78614115D01*
X206191915Y-78575950D01*
X206189106Y-78539558D01*
X206165659Y-78539558D01*
X206165659Y-78901953D01*
X206284788Y-78901953D01*
X206256723Y-78915324D01*
X206208646Y-78943902D01*
X206188692Y-78962133D01*
X206172943Y-78990251D01*
X206162047Y-79031636D01*
X206157843Y-79090814D01*
X206163144Y-79133652D01*
X206178638Y-79171205D01*
X206204799Y-79204815D01*
X206238424Y-79231092D01*
X206275143Y-79246492D01*
X206316174Y-79251709D01*
X206357294Y-79246669D01*
X206392567Y-79232068D01*
X206423396Y-79207623D01*
X206447094Y-79176066D01*
X206461260Y-79140352D01*
X206466139Y-79099180D01*
X206461996Y-79065238D01*
X206449822Y-79035016D01*
X206429197Y-79007527D01*
X206402655Y-78985703D01*
X206374822Y-78973210D01*
X206344811Y-78969059D01*
X206310988Y-78972288D01*
X206280636Y-78981699D01*
X206226231Y-79009665D01*
X206218549Y-79002130D01*
X206216461Y-78995682D01*
X206220777Y-78973594D01*
X206234315Y-78952666D01*
X206259692Y-78931995D01*
X206303124Y-78911045D01*
X206340598Y-78904762D01*
X206662876Y-78904762D01*
X206732608Y-78906167D01*
X206768274Y-78909180D01*
X206785669Y-78915936D01*
X206796081Y-78930384D01*
X206803743Y-78964907D01*
X206806552Y-79006856D01*
X206830000Y-79006856D01*
X206830000Y-78539558D01*
G37*
G36*
X205981988Y-79823726D02*
G01*
X206635765Y-79823726D01*
X206702932Y-79826535D01*
X206744151Y-79835046D01*
X206770893Y-79849616D01*
X206788855Y-79873043D01*
X206799530Y-79911837D01*
X206806552Y-80009778D01*
X206830000Y-80009778D01*
X206830000Y-79606838D01*
X206806552Y-79606838D01*
X206804476Y-79652329D01*
X206798859Y-79711802D01*
X206789042Y-79743551D01*
X206770282Y-79767062D01*
X206743080Y-79782784D01*
X206703237Y-79791547D01*
X206636254Y-79794356D01*
X205988461Y-79794356D01*
X205924225Y-79791547D01*
X205893005Y-79778862D01*
X205868415Y-79761444D01*
X205850550Y-79738942D01*
X205841915Y-79712473D01*
X205836297Y-79655809D01*
X205833489Y-79613860D01*
X205810041Y-79613860D01*
X205810041Y-80131533D01*
X206415153Y-80366556D01*
X205810041Y-80577826D01*
X205810041Y-81081454D01*
X205833489Y-81081454D01*
X205833489Y-81049275D01*
X205838923Y-80991207D01*
X205848377Y-80951538D01*
X205862065Y-80930329D01*
X205883873Y-80917523D01*
X205923309Y-80909324D01*
X205985896Y-80906577D01*
X206650847Y-80906577D01*
X206715389Y-80909324D01*
X206756216Y-80917029D01*
X206777793Y-80928192D01*
X206791302Y-80947587D01*
X206800935Y-80986322D01*
X206806552Y-81056236D01*
X206830000Y-81056236D01*
X206830000Y-80418274D01*
X206806552Y-80418274D01*
X206802339Y-80482632D01*
X206793218Y-80522691D01*
X206781456Y-80541372D01*
X206761448Y-80551871D01*
X206718625Y-80559569D01*
X206654450Y-80562377D01*
X206136838Y-80562377D01*
X206034317Y-80565858D01*
X205923370Y-80573613D01*
X205923370Y-80565186D01*
X206103560Y-80507850D01*
X206830000Y-80260188D01*
X206830000Y-80173482D01*
X205981988Y-79832091D01*
X205981988Y-79823726D01*
G37*
G36*
X206706229Y-81160772D02*
G01*
X206670651Y-81165321D01*
X206639359Y-81178663D01*
X206611219Y-81201317D01*
X206589429Y-81230327D01*
X206576500Y-81262607D01*
X206572079Y-81299258D01*
X206576416Y-81335977D01*
X206589109Y-81368496D01*
X206610486Y-81397871D01*
X206638296Y-81420865D01*
X206669795Y-81434477D01*
X206706229Y-81439148D01*
X206742694Y-81434558D01*
X206774434Y-81421162D01*
X206802644Y-81398543D01*
X206824324Y-81369546D01*
X206837270Y-81336842D01*
X206841723Y-81299258D01*
X206837308Y-81262603D01*
X206824398Y-81230323D01*
X206802644Y-81201317D01*
X206774439Y-81178734D01*
X206742698Y-81165357D01*
X206706229Y-81160772D01*
G37*
G36*
X206597494Y-81901996D02*
G01*
X206654190Y-81919169D01*
X206706301Y-81947675D01*
X206754712Y-81988450D01*
X206793560Y-82037194D01*
X206821767Y-82093849D01*
X206839410Y-82159945D01*
X206845631Y-82237517D01*
X206842223Y-82294728D01*
X206832228Y-82348161D01*
X206815833Y-82398351D01*
X206791939Y-82445356D01*
X206753553Y-82499492D01*
X206697131Y-82562116D01*
X206747179Y-82611255D01*
X206784501Y-82657973D01*
X206810949Y-82702677D01*
X206829916Y-82750882D01*
X206841596Y-82803995D01*
X206845631Y-82862901D01*
X206839992Y-82932379D01*
X206823668Y-82994468D01*
X206797012Y-83050478D01*
X206759658Y-83101404D01*
X206713539Y-83143230D01*
X206659582Y-83173319D01*
X206596229Y-83192062D01*
X206521277Y-83198674D01*
X206521277Y-83176264D01*
X206579537Y-83167398D01*
X206616980Y-83153778D01*
X206639673Y-83137063D01*
X206662410Y-83102404D01*
X206669776Y-83064340D01*
X206665611Y-83033796D01*
X206651851Y-82998166D01*
X206625812Y-82955896D01*
X206571315Y-82893809D01*
X206470169Y-82804099D01*
X206394148Y-82865648D01*
X206288086Y-82941913D01*
X206247756Y-82974377D01*
X206224347Y-83003413D01*
X206213408Y-83030024D01*
X206202967Y-83091573D01*
X206200830Y-83124485D01*
X206177383Y-83124485D01*
X206177383Y-82769173D01*
X206200830Y-82769173D01*
X206204982Y-82834935D01*
X206209517Y-82865291D01*
X206216156Y-82885982D01*
X206228194Y-82899865D01*
X206249556Y-82904849D01*
X206279476Y-82899232D01*
X206337178Y-82871266D01*
X206374558Y-82847640D01*
X206406788Y-82822967D01*
X206448492Y-82787308D01*
X206368598Y-82726703D01*
X206292665Y-82673979D01*
X206132625Y-82573290D01*
X206112313Y-82629574D01*
X206088879Y-82672619D01*
X206062772Y-82704815D01*
X206030768Y-82730051D01*
X205996646Y-82744671D01*
X205959335Y-82749572D01*
X205913567Y-82743194D01*
X205874564Y-82724599D01*
X205840572Y-82692908D01*
X205816196Y-82652569D01*
X205800283Y-82599459D01*
X205796416Y-82553689D01*
X205821765Y-82553689D01*
X205826254Y-82584265D01*
X205839133Y-82608953D01*
X205860966Y-82629221D01*
X205888374Y-82643326D01*
X205923227Y-82652494D01*
X205967395Y-82655844D01*
X206009536Y-82652329D01*
X206041156Y-82642885D01*
X206064665Y-82628550D01*
X206093651Y-82598508D01*
X206114368Y-82563520D01*
X206054983Y-82531221D01*
X205996765Y-82505451D01*
X205939292Y-82487584D01*
X205894549Y-82482370D01*
X205863915Y-82487824D01*
X205841366Y-82503314D01*
X205826693Y-82526339D01*
X205821765Y-82553689D01*
X205796416Y-82553689D01*
X205794410Y-82529937D01*
X205799905Y-82443231D01*
X205814990Y-82373613D01*
X205838090Y-82317996D01*
X205868415Y-82273848D01*
X205897011Y-82245882D01*
X206225743Y-82245882D01*
X206348793Y-82312138D01*
X206472672Y-82389986D01*
X206588979Y-82473057D01*
X206677592Y-82545324D01*
X206696338Y-82513145D01*
X206702395Y-82490649D01*
X206704947Y-82451596D01*
X206699300Y-82402451D01*
X206682333Y-82355825D01*
X206653132Y-82310630D01*
X206609692Y-82266154D01*
X206560016Y-82231099D01*
X206503691Y-82205676D01*
X206439498Y-82189864D01*
X206365877Y-82184333D01*
X206317348Y-82188877D01*
X206276240Y-82201796D01*
X206242666Y-82222755D01*
X206225743Y-82245882D01*
X205897011Y-82245882D01*
X205908661Y-82234489D01*
X205948344Y-82208391D01*
X205988105Y-82193453D01*
X206028883Y-82188546D01*
X206085429Y-82191760D01*
X206121695Y-82199720D01*
X206204738Y-82236113D01*
X206224912Y-82149095D01*
X206251875Y-82079054D01*
X206284698Y-82023222D01*
X206323012Y-81979352D01*
X206369902Y-81942732D01*
X206420268Y-81916992D01*
X206474918Y-81901443D01*
X206534954Y-81896127D01*
X206597494Y-81901996D01*
G37*
G36*
X206354214Y-84146458D02*
G01*
X206398911Y-84108661D01*
X206654389Y-84108661D01*
X206718625Y-84111470D01*
X206760241Y-84119277D01*
X206780724Y-84130338D01*
X206793115Y-84149496D01*
X206802339Y-84188346D01*
X206806552Y-84238721D01*
X206830000Y-84238721D01*
X206830000Y-83614802D01*
X206806552Y-83614802D01*
X206800996Y-83684717D01*
X206791396Y-83721152D01*
X206777243Y-83741381D01*
X206755181Y-83753699D01*
X206715816Y-83761653D01*
X206651580Y-83764462D01*
X205988461Y-83764462D01*
X205924225Y-83761653D01*
X205883586Y-83753981D01*
X205862126Y-83742786D01*
X205848666Y-83723448D01*
X205839045Y-83684717D01*
X205833489Y-83611994D01*
X205810041Y-83611994D01*
X205810041Y-84242934D01*
X205833489Y-84242934D01*
X205837702Y-84188407D01*
X205845804Y-84149554D01*
X205857913Y-84130338D01*
X205878560Y-84119317D01*
X205921416Y-84111470D01*
X205985652Y-84108661D01*
X206362580Y-84108661D01*
X206231360Y-84221929D01*
X206058986Y-84370917D01*
X205934727Y-84473072D01*
X205899832Y-84493614D01*
X205876781Y-84498961D01*
X205859759Y-84495135D01*
X205848876Y-84484246D01*
X205842171Y-84468019D01*
X205837702Y-84444434D01*
X205833489Y-84378672D01*
X205810041Y-84378672D01*
X205810041Y-84733984D01*
X205833489Y-84733984D01*
X205835626Y-84696188D01*
X205841915Y-84648621D01*
X205849999Y-84620817D01*
X205864202Y-84590553D01*
X205885686Y-84560487D01*
X205925629Y-84519966D01*
X206086158Y-84380076D01*
X206675333Y-84762011D01*
X206746503Y-84813006D01*
X206774434Y-84838886D01*
X206790433Y-84863999D01*
X206798859Y-84890666D01*
X206804476Y-84933347D01*
X206806552Y-84959237D01*
X206830000Y-84959237D01*
X206830000Y-84286287D01*
X206806552Y-84286287D01*
X206803743Y-84345027D01*
X206795439Y-84388442D01*
X206786612Y-84398589D01*
X206768878Y-84402424D01*
X206737493Y-84395403D01*
X206680218Y-84363224D01*
X206593633Y-84306559D01*
X206467971Y-84222662D01*
X206354214Y-84146458D01*
G37*
G36*
X206830000Y-85330364D02*
G01*
X206830000Y-84877049D01*
X206806552Y-84877049D01*
X206805148Y-84910633D01*
X206796965Y-84945905D01*
X206785608Y-84959542D01*
X206765644Y-84965235D01*
X206718564Y-84967969D01*
X206654267Y-84969373D01*
X206320448Y-84969373D01*
X206263173Y-84968030D01*
X206212859Y-84959603D01*
X206200683Y-84947393D01*
X206191915Y-84909228D01*
X206189106Y-84871493D01*
X206165659Y-84871493D01*
X206165659Y-85238040D01*
X206654023Y-85238040D01*
X206718381Y-85239445D01*
X206764425Y-85242124D01*
X206784876Y-85247810D01*
X206796785Y-85261560D01*
X206805148Y-85296781D01*
X206806552Y-85330364D01*
X206830000Y-85330364D01*
G37*
G36*
X205930453Y-84966625D02*
G01*
X205895571Y-84971090D01*
X205864775Y-84984202D01*
X205836969Y-85006498D01*
X205815426Y-85034994D01*
X205802672Y-85066593D01*
X205798318Y-85102363D01*
X205802570Y-85139117D01*
X205814925Y-85171148D01*
X205835565Y-85199572D01*
X205862568Y-85221667D01*
X205893758Y-85234874D01*
X205930453Y-85239445D01*
X205966305Y-85234940D01*
X205997566Y-85221788D01*
X206025403Y-85199572D01*
X206046876Y-85171049D01*
X206059665Y-85139024D01*
X206064054Y-85102363D01*
X206059700Y-85066593D01*
X206046946Y-85034994D01*
X206025403Y-85006498D01*
X205997566Y-84984282D01*
X205966305Y-84971130D01*
X205930453Y-84966625D01*
G37*
G36*
X206540816Y-85403210D02*
G01*
X206540816Y-85421406D01*
X206645949Y-85460692D01*
X206707756Y-85494129D01*
X206755672Y-85533353D01*
X206787745Y-85573203D01*
X206807368Y-85619273D01*
X206814368Y-85677433D01*
X206809523Y-85710368D01*
X206795500Y-85737578D01*
X206773128Y-85756385D01*
X206742988Y-85762796D01*
X206703479Y-85757345D01*
X206678630Y-85743196D01*
X206658326Y-85720099D01*
X206633140Y-85681585D01*
X206578613Y-85584377D01*
X206547736Y-85531880D01*
X206519872Y-85492053D01*
X206488779Y-85458758D01*
X206454781Y-85434656D01*
X206416288Y-85419620D01*
X206370823Y-85414384D01*
X206320690Y-85419558D01*
X206278252Y-85434331D01*
X206241887Y-85458430D01*
X206210600Y-85492725D01*
X206179705Y-85547455D01*
X206160620Y-85610672D01*
X206153935Y-85684394D01*
X206158637Y-85736420D01*
X206172559Y-85785144D01*
X206216461Y-85878872D01*
X206211147Y-85896304D01*
X206193136Y-85912456D01*
X206168270Y-85922813D01*
X206138304Y-85926439D01*
X206138304Y-85946039D01*
X206419672Y-85946039D01*
X206419672Y-85927843D01*
X206345483Y-85899877D01*
X206305526Y-85879914D01*
X206263539Y-85851578D01*
X206226028Y-85818299D01*
X206199792Y-85785144D01*
X206183385Y-85746820D01*
X206177383Y-85695568D01*
X206182405Y-85659136D01*
X206196311Y-85631943D01*
X206217825Y-85613419D01*
X206243267Y-85607458D01*
X206272864Y-85612108D01*
X206293825Y-85624921D01*
X206311437Y-85644987D01*
X206332355Y-85676029D01*
X206384256Y-85767681D01*
X206446416Y-85871912D01*
X206480726Y-85914282D01*
X206522254Y-85948848D01*
X206553630Y-85965840D01*
X206587933Y-85976106D01*
X206625935Y-85979623D01*
X206677799Y-85974158D01*
X206720877Y-85958664D01*
X206757052Y-85933508D01*
X206787440Y-85897740D01*
X206816991Y-85840931D01*
X206835307Y-85775580D01*
X206841723Y-85699781D01*
X206835801Y-85640568D01*
X206817848Y-85582301D01*
X206763565Y-85471781D01*
X206769626Y-85455931D01*
X206792203Y-85439602D01*
X206821690Y-85428443D01*
X206853447Y-85422810D01*
X206853447Y-85403210D01*
X206540816Y-85403210D01*
G37*
G36*
X206271599Y-86381036D02*
G01*
X206236475Y-86401476D01*
X206207778Y-86426117D01*
X206184771Y-86455163D01*
X206168678Y-86488383D01*
X206157939Y-86532633D01*
X206153935Y-86590901D01*
X206159911Y-86653587D01*
X206177353Y-86710031D01*
X206206264Y-86761566D01*
X206235303Y-86794976D01*
X206266919Y-86817695D01*
X206301712Y-86831163D01*
X206340781Y-86835755D01*
X206654572Y-86835755D01*
X206718686Y-86837159D01*
X206764561Y-86839838D01*
X206784937Y-86845525D01*
X206796834Y-86859275D01*
X206805148Y-86894495D01*
X206806552Y-86925270D01*
X206830000Y-86925270D01*
X206830000Y-86492960D01*
X206806552Y-86492960D01*
X206805148Y-86511156D01*
X206800098Y-86543846D01*
X206788478Y-86557318D01*
X206767190Y-86563037D01*
X206718808Y-86565744D01*
X206654694Y-86567149D01*
X206370518Y-86567149D01*
X206313426Y-86565744D01*
X206259877Y-86560007D01*
X206229834Y-86546144D01*
X206211363Y-86522465D01*
X206204738Y-86487404D01*
X206208536Y-86457292D01*
X206218871Y-86435363D01*
X206235390Y-86419504D01*
X206298100Y-86386653D01*
X206654694Y-86386653D01*
X206718808Y-86388058D01*
X206768328Y-86390565D01*
X206789150Y-86395751D01*
X206800192Y-86408758D01*
X206805148Y-86442585D01*
X206806552Y-86460781D01*
X206830000Y-86460781D01*
X206830000Y-86027067D01*
X206806552Y-86027067D01*
X206805148Y-86059246D01*
X206797012Y-86094572D01*
X206785669Y-86108217D01*
X206765705Y-86113909D01*
X206718625Y-86116643D01*
X206654389Y-86118047D01*
X205964708Y-86118047D01*
X205907494Y-86116643D01*
X205873135Y-86113085D01*
X205855104Y-86104736D01*
X205844041Y-86088503D01*
X205836297Y-86053689D01*
X205833489Y-86000505D01*
X205810041Y-86000505D01*
X205810041Y-86386653D01*
X206142212Y-86386653D01*
X206220308Y-86385249D01*
X206271599Y-86381036D01*
G37*
G36*
X206569397Y-86955238D02*
G01*
X206633210Y-86975450D01*
X206690908Y-87008881D01*
X206743599Y-87056673D01*
X206786168Y-87113580D01*
X206816589Y-87176585D01*
X206835259Y-87246872D01*
X206841723Y-87326011D01*
X206835444Y-87400601D01*
X206817063Y-87468860D01*
X206786677Y-87532037D01*
X206743599Y-87591076D01*
X206690645Y-87640953D01*
X206632862Y-87675661D01*
X206569150Y-87696563D01*
X206497829Y-87703733D01*
X206425679Y-87696599D01*
X206361607Y-87675866D01*
X206303890Y-87641572D01*
X206251388Y-87592480D01*
X206208798Y-87534206D01*
X206178604Y-87471098D01*
X206160239Y-87402146D01*
X206153935Y-87326011D01*
X206154051Y-87324607D01*
X206177383Y-87324607D01*
X206182725Y-87354249D01*
X206198316Y-87377758D01*
X206225926Y-87396659D01*
X206278406Y-87413459D01*
X206349391Y-87419740D01*
X206418756Y-87422548D01*
X206496425Y-87425357D01*
X206580383Y-87421144D01*
X206646268Y-87419740D01*
X206714906Y-87413375D01*
X206768328Y-87395926D01*
X206797095Y-87376630D01*
X206812958Y-87353749D01*
X206818276Y-87326011D01*
X206812992Y-87297290D01*
X206797458Y-87274213D01*
X206769733Y-87255364D01*
X206717252Y-87238563D01*
X206646268Y-87232283D01*
X206576231Y-87229474D01*
X206496425Y-87226666D01*
X206413932Y-87230146D01*
X206349391Y-87232283D01*
X206281843Y-87238583D01*
X206228002Y-87256036D01*
X206198670Y-87275365D01*
X206182685Y-87297829D01*
X206177383Y-87324607D01*
X206154051Y-87324607D01*
X206160341Y-87248399D01*
X206178925Y-87178780D01*
X206209353Y-87115704D01*
X206252121Y-87058077D01*
X206304868Y-87009603D01*
X206362574Y-86975753D01*
X206426342Y-86955312D01*
X206497829Y-86948290D01*
X206569397Y-86955238D01*
G37*
G36*
X206830000Y-87732859D02*
G01*
X206806552Y-87732859D01*
X206805148Y-87770655D01*
X206796963Y-87805981D01*
X206785608Y-87819626D01*
X206765648Y-87825277D01*
X206718564Y-87827991D01*
X206654267Y-87829396D01*
X206320448Y-87829396D01*
X206263173Y-87827991D01*
X206212859Y-87819626D01*
X206200683Y-87807415D01*
X206191915Y-87769251D01*
X206189106Y-87732859D01*
X206165659Y-87732859D01*
X206165659Y-88095254D01*
X206284788Y-88095254D01*
X206256723Y-88108624D01*
X206208646Y-88137203D01*
X206188692Y-88155433D01*
X206172943Y-88183551D01*
X206162047Y-88224937D01*
X206157843Y-88284115D01*
X206163144Y-88326953D01*
X206178638Y-88364506D01*
X206204799Y-88398115D01*
X206238424Y-88424393D01*
X206275143Y-88439793D01*
X206316174Y-88445010D01*
X206357294Y-88439969D01*
X206392567Y-88425369D01*
X206423396Y-88400924D01*
X206447094Y-88369367D01*
X206461260Y-88333653D01*
X206466139Y-88292480D01*
X206461996Y-88258539D01*
X206449822Y-88228316D01*
X206429197Y-88200828D01*
X206402655Y-88179004D01*
X206374822Y-88166511D01*
X206344811Y-88162360D01*
X206310988Y-88165589D01*
X206280636Y-88175000D01*
X206226231Y-88202965D01*
X206218549Y-88195431D01*
X206216461Y-88188982D01*
X206220777Y-88166895D01*
X206234315Y-88145966D01*
X206259692Y-88125296D01*
X206303124Y-88104346D01*
X206340598Y-88098063D01*
X206662876Y-88098063D01*
X206732608Y-88099467D01*
X206768274Y-88102481D01*
X206785669Y-88109237D01*
X206796081Y-88123685D01*
X206803743Y-88158208D01*
X206806552Y-88200157D01*
X206830000Y-88200157D01*
X206830000Y-87732859D01*
G37*
G36*
X206577043Y-88468801D02*
G01*
X206644128Y-88489201D01*
X206701426Y-88522057D01*
X206750560Y-88567925D01*
X206789635Y-88623330D01*
X206817960Y-88686074D01*
X206835568Y-88757503D01*
X206841723Y-88839340D01*
X206834886Y-88915877D01*
X206815145Y-88983383D01*
X206782861Y-89043588D01*
X206738883Y-89095821D01*
X206685068Y-89137603D01*
X206620012Y-89169495D01*
X206610303Y-89147086D01*
X206656853Y-89126353D01*
X206696865Y-89100953D01*
X206731081Y-89070882D01*
X206757147Y-89035081D01*
X206773391Y-88990871D01*
X206779197Y-88935877D01*
X206775626Y-88896768D01*
X206765501Y-88863809D01*
X206749216Y-88835799D01*
X206714803Y-88800734D01*
X206670326Y-88774249D01*
X206620544Y-88756050D01*
X206569148Y-88744879D01*
X206466566Y-88737185D01*
X206466566Y-89166687D01*
X206402346Y-89161148D01*
X206344739Y-89145059D01*
X206292489Y-89118635D01*
X206244672Y-89081324D01*
X206206327Y-89035998D01*
X206178177Y-88981257D01*
X206160319Y-88915163D01*
X206153935Y-88835127D01*
X206154630Y-88826762D01*
X206177383Y-88826762D01*
X206182500Y-88858523D01*
X206196877Y-88882077D01*
X206221285Y-88899485D01*
X206270676Y-88914430D01*
X206350062Y-88920490D01*
X206403002Y-88921161D01*
X206439211Y-88923299D01*
X206439211Y-88737185D01*
X206350062Y-88739994D01*
X206268206Y-88750635D01*
X206219881Y-88764419D01*
X206195918Y-88779468D01*
X206182192Y-88799697D01*
X206177383Y-88826762D01*
X206154630Y-88826762D01*
X206160199Y-88759687D01*
X206178439Y-88691424D01*
X206208423Y-88629000D01*
X206250717Y-88571406D01*
X206302764Y-88523125D01*
X206360411Y-88489263D01*
X206424841Y-88468712D01*
X206497829Y-88461618D01*
X206577043Y-88468801D01*
G37*
G36*
X206354214Y-90116730D02*
G01*
X206398911Y-90078934D01*
X206654389Y-90078934D01*
X206718625Y-90081742D01*
X206760241Y-90089549D01*
X206780724Y-90100610D01*
X206793115Y-90119769D01*
X206802339Y-90158618D01*
X206806552Y-90208993D01*
X206830000Y-90208993D01*
X206830000Y-89585075D01*
X206806552Y-89585075D01*
X206800996Y-89654989D01*
X206791396Y-89691424D01*
X206777243Y-89711653D01*
X206755181Y-89723971D01*
X206715816Y-89731926D01*
X206651580Y-89734734D01*
X205988461Y-89734734D01*
X205924225Y-89731926D01*
X205883586Y-89724253D01*
X205862126Y-89713058D01*
X205848666Y-89693720D01*
X205839045Y-89654989D01*
X205833489Y-89582266D01*
X205810041Y-89582266D01*
X205810041Y-90213206D01*
X205833489Y-90213206D01*
X205837702Y-90158679D01*
X205845804Y-90119826D01*
X205857913Y-90100610D01*
X205878560Y-90089589D01*
X205921416Y-90081742D01*
X205985652Y-90078934D01*
X206362580Y-90078934D01*
X206231360Y-90192201D01*
X206058986Y-90341189D01*
X205934727Y-90443344D01*
X205899832Y-90463886D01*
X205876781Y-90469234D01*
X205859759Y-90465407D01*
X205848876Y-90454518D01*
X205842171Y-90438291D01*
X205837702Y-90414706D01*
X205833489Y-90348944D01*
X205810041Y-90348944D01*
X205810041Y-90704256D01*
X205833489Y-90704256D01*
X205835626Y-90666460D01*
X205841915Y-90618893D01*
X205849999Y-90591089D01*
X205864202Y-90560825D01*
X205885686Y-90530759D01*
X205925629Y-90490239D01*
X206086158Y-90350348D01*
X206675333Y-90732283D01*
X206746503Y-90783278D01*
X206774434Y-90809159D01*
X206790433Y-90834272D01*
X206798859Y-90860938D01*
X206804476Y-90903620D01*
X206806552Y-90929509D01*
X206830000Y-90929509D01*
X206830000Y-90256559D01*
X206806552Y-90256559D01*
X206803743Y-90315300D01*
X206795439Y-90358714D01*
X206786612Y-90368861D01*
X206768878Y-90372697D01*
X206737493Y-90365675D01*
X206680218Y-90333496D01*
X206593633Y-90276831D01*
X206467971Y-90192934D01*
X206354214Y-90116730D01*
G37*
G36*
X206706229Y-90886523D02*
G01*
X206670651Y-90891071D01*
X206639359Y-90904413D01*
X206611219Y-90927067D01*
X206589429Y-90956077D01*
X206576500Y-90988358D01*
X206572079Y-91025008D01*
X206576416Y-91061727D01*
X206589109Y-91094246D01*
X206610486Y-91123621D01*
X206638296Y-91146616D01*
X206669795Y-91160227D01*
X206706229Y-91164898D01*
X206742694Y-91160308D01*
X206774434Y-91146912D01*
X206802644Y-91124293D01*
X206824324Y-91095296D01*
X206837270Y-91062592D01*
X206841723Y-91025008D01*
X206837308Y-90988354D01*
X206824398Y-90956073D01*
X206802644Y-90927067D01*
X206774439Y-90904484D01*
X206742698Y-90891107D01*
X206706229Y-90886523D01*
G37*
X203313333Y-94334819D02*
X203313333Y-95049104D01*
X203313333Y-95049104D02*
X203360952Y-95191961D01*
X203360952Y-95191961D02*
X203456190Y-95287200D01*
X203456190Y-95287200D02*
X203599047Y-95334819D01*
X203599047Y-95334819D02*
X203694285Y-95334819D01*
X202313333Y-95334819D02*
X202884761Y-95334819D01*
X202599047Y-95334819D02*
X202599047Y-94334819D01*
X202599047Y-94334819D02*
X202694285Y-94477676D01*
X202694285Y-94477676D02*
X202789523Y-94572914D01*
X202789523Y-94572914D02*
X202884761Y-94620533D01*
D11*
%TO.C,J1*%
X197490000Y-96320000D02*
X197490000Y-97650000D01*
X198600000Y-96320000D02*
X197490000Y-96320000D01*
X200060000Y-96320000D02*
X200060000Y-106600000D01*
X200060000Y-97290000D02*
X199710000Y-97290000D01*
X200060000Y-98010000D02*
X199710000Y-98010000D01*
X200060000Y-99830000D02*
X199650000Y-99830000D01*
X200060000Y-100550000D02*
X199650000Y-100550000D01*
X200060000Y-102370000D02*
X199650000Y-102370000D01*
X200060000Y-103090000D02*
X199650000Y-103090000D01*
X200060000Y-104910000D02*
X199650000Y-104910000D01*
X200060000Y-105630000D02*
X199650000Y-105630000D01*
X208690000Y-96320000D02*
X200060000Y-96320000D01*
X208690000Y-96320000D02*
X208690000Y-106600000D01*
X208690000Y-96440000D02*
X200060000Y-96440000D01*
X208690000Y-96558095D02*
X200060000Y-96558095D01*
X208690000Y-96676190D02*
X200060000Y-96676190D01*
X208690000Y-96794285D02*
X200060000Y-96794285D01*
X208690000Y-96912380D02*
X200060000Y-96912380D01*
X208690000Y-97030475D02*
X200060000Y-97030475D01*
X208690000Y-97148570D02*
X200060000Y-97148570D01*
X208690000Y-97266665D02*
X200060000Y-97266665D01*
X208690000Y-97384760D02*
X200060000Y-97384760D01*
X208690000Y-97502855D02*
X200060000Y-97502855D01*
X208690000Y-97620950D02*
X200060000Y-97620950D01*
X208690000Y-97739045D02*
X200060000Y-97739045D01*
X208690000Y-97857140D02*
X200060000Y-97857140D01*
X208690000Y-97975235D02*
X200060000Y-97975235D01*
X208690000Y-98093330D02*
X200060000Y-98093330D01*
X208690000Y-98211425D02*
X200060000Y-98211425D01*
X208690000Y-98329520D02*
X200060000Y-98329520D01*
X208690000Y-98447615D02*
X200060000Y-98447615D01*
X208690000Y-98565710D02*
X200060000Y-98565710D01*
X208690000Y-98683805D02*
X200060000Y-98683805D01*
X208690000Y-98801900D02*
X200060000Y-98801900D01*
X208690000Y-98920000D02*
X200060000Y-98920000D01*
X208690000Y-101460000D02*
X200060000Y-101460000D01*
X208690000Y-104000000D02*
X200060000Y-104000000D01*
X208690000Y-106600000D02*
X200060000Y-106600000D01*
%TD*%
M02*
