%TF.GenerationSoftware,KiCad,Pcbnew,9.0.4*%
%TF.CreationDate,2026-04-18T11:06:45-05:00*%
%TF.ProjectId,Vibro_Band,56696272-6f5f-4426-916e-642e6b696361,rev?*%
%TF.SameCoordinates,Original*%
%TF.FileFunction,Copper,L2,Bot*%
%TF.FilePolarity,Positive*%
%FSLAX46Y46*%
G04 Gerber Fmt 4.6, Leading zero omitted, Abs format (unit mm)*
G04 Created by KiCad (PCBNEW 9.0.4) date 2026-04-18 11:06:45*
%MOMM*%
%LPD*%
G01*
G04 APERTURE LIST*
G04 Aperture macros list*
%AMRoundRect*
0 Rectangle with rounded corners*
0 $1 Rounding radius*
0 $2 $3 $4 $5 $6 $7 $8 $9 X,Y pos of 4 corners*
0 Add a 4 corners polygon primitive as box body*
4,1,4,$2,$3,$4,$5,$6,$7,$8,$9,$2,$3,0*
0 Add four circle primitives for the rounded corners*
1,1,$1+$1,$2,$3*
1,1,$1+$1,$4,$5*
1,1,$1+$1,$6,$7*
1,1,$1+$1,$8,$9*
0 Add four rect primitives between the rounded corners*
20,1,$1+$1,$2,$3,$4,$5,0*
20,1,$1+$1,$4,$5,$6,$7,0*
20,1,$1+$1,$6,$7,$8,$9,0*
20,1,$1+$1,$8,$9,$2,$3,0*%
G04 Aperture macros list end*
%TA.AperFunction,ComponentPad*%
%ADD10R,1.700000X1.700000*%
%TD*%
%TA.AperFunction,ComponentPad*%
%ADD11C,1.700000*%
%TD*%
%TA.AperFunction,ComponentPad*%
%ADD12O,3.500000X2.200000*%
%TD*%
%TA.AperFunction,ComponentPad*%
%ADD13R,2.500000X1.500000*%
%TD*%
%TA.AperFunction,ComponentPad*%
%ADD14O,2.500000X1.500000*%
%TD*%
%TA.AperFunction,ComponentPad*%
%ADD15RoundRect,0.250000X-0.550000X-0.550000X0.550000X-0.550000X0.550000X0.550000X-0.550000X0.550000X0*%
%TD*%
%TA.AperFunction,ComponentPad*%
%ADD16C,1.600000*%
%TD*%
%TA.AperFunction,ViaPad*%
%ADD17C,0.600000*%
%TD*%
%TA.AperFunction,ViaPad*%
%ADD18C,1.200000*%
%TD*%
%TA.AperFunction,ViaPad*%
%ADD19C,2.000000*%
%TD*%
%TA.AperFunction,Conductor*%
%ADD20C,0.500000*%
%TD*%
%TA.AperFunction,Conductor*%
%ADD21C,0.300000*%
%TD*%
G04 APERTURE END LIST*
D10*
%TO.P,J3,1,Pin_1*%
%TO.N,unconnected-(J3-Pin_1-Pad1)*%
X185400000Y-75125000D03*
D11*
%TO.P,J3,2,Pin_2*%
%TO.N,unconnected-(J3-Pin_2-Pad2)*%
X185400000Y-77665000D03*
%TO.P,J3,3,Pin_3*%
%TO.N,unconnected-(J3-Pin_3-Pad3)*%
X185400000Y-80205000D03*
%TO.P,J3,4,Pin_4*%
%TO.N,unconnected-(J3-Pin_4-Pad4)*%
X185400000Y-82745000D03*
%TO.P,J3,5,Pin_5*%
%TO.N,/SDA*%
X185400000Y-85285000D03*
%TO.P,J3,6,Pin_6*%
%TO.N,/SCL*%
X185400000Y-87825000D03*
%TO.P,J3,7,Pin_7*%
%TO.N,/GND*%
X185400000Y-90365000D03*
%TO.P,J3,8,Pin_8*%
%TO.N,/3.3V*%
X185400000Y-92905000D03*
%TD*%
D12*
%TO.P,SW1,*%
%TO.N,*%
X206000000Y-117100000D03*
X206000000Y-108900000D03*
D13*
%TO.P,SW1,1,A*%
%TO.N,/GND*%
X206000000Y-115000000D03*
D14*
%TO.P,SW1,2,B*%
%TO.N,/CHIP_EN*%
X206000000Y-113000000D03*
%TO.P,SW1,3,C*%
%TO.N,unconnected-(SW1-C-Pad3)*%
X206000000Y-111000000D03*
%TD*%
D15*
%TO.P,U1,1,I1*%
%TO.N,/TRAN1*%
X188380000Y-97420000D03*
D16*
%TO.P,U1,2,I2*%
%TO.N,/TRAN2*%
X188380000Y-99960000D03*
%TO.P,U1,3,I3*%
%TO.N,/TRAN3*%
X188380000Y-102500000D03*
%TO.P,U1,4,I4*%
%TO.N,/TRAN4*%
X188380000Y-105040000D03*
%TO.P,U1,5,I5*%
%TO.N,unconnected-(U1-I5-Pad5)*%
X188380000Y-107580000D03*
%TO.P,U1,6,I6*%
%TO.N,unconnected-(U1-I6-Pad6)*%
X188380000Y-110120000D03*
%TO.P,U1,7,I7*%
%TO.N,unconnected-(U1-I7-Pad7)*%
X188380000Y-112660000D03*
%TO.P,U1,8,GND*%
%TO.N,/GND*%
X188380000Y-115200000D03*
%TO.P,U1,9,COM*%
%TO.N,/3.3V*%
X196000000Y-115200000D03*
%TO.P,U1,10,O7*%
%TO.N,unconnected-(U1-O7-Pad10)*%
X196000000Y-112660000D03*
%TO.P,U1,11,O6*%
%TO.N,unconnected-(U1-O6-Pad11)*%
X196000000Y-110120000D03*
%TO.P,U1,12,O5*%
%TO.N,unconnected-(U1-O5-Pad12)*%
X196000000Y-107580000D03*
%TO.P,U1,13,O4*%
%TO.N,/MTR4-*%
X196000000Y-105040000D03*
%TO.P,U1,14,O3*%
%TO.N,/MTR3-*%
X196000000Y-102500000D03*
%TO.P,U1,15,O2*%
%TO.N,/MTR2-*%
X196000000Y-99960000D03*
%TO.P,U1,16,O1*%
%TO.N,/MTR1-*%
X196000000Y-97420000D03*
%TD*%
D10*
%TO.P,J2,1,Pin_1*%
%TO.N,/BAT+*%
X185400000Y-97675000D03*
D11*
%TO.P,J2,2,Pin_2*%
%TO.N,/BAT-*%
X185400000Y-100215000D03*
%TO.P,J2,3,Pin_3*%
%TO.N,/BAT+*%
X185400000Y-102755000D03*
%TO.P,J2,4,Pin_4*%
%TO.N,/MTR1-*%
X185400000Y-105295000D03*
%TO.P,J2,5,Pin_5*%
%TO.N,/BAT+*%
X185400000Y-107835000D03*
%TO.P,J2,6,Pin_6*%
%TO.N,/MTR2-*%
X185400000Y-110375000D03*
%TD*%
D10*
%TO.P,J1,1,Pin_1*%
%TO.N,/BAT+*%
X198600000Y-97650000D03*
D11*
%TO.P,J1,2,Pin_2*%
%TO.N,/MTR3-*%
X198600000Y-100190000D03*
%TO.P,J1,3,Pin_3*%
%TO.N,/BAT+*%
X198600000Y-102730000D03*
%TO.P,J1,4,Pin_4*%
%TO.N,/MTR4-*%
X198600000Y-105270000D03*
%TD*%
D17*
%TO.N,/GND*%
X201500000Y-82000000D03*
%TO.N,/TRAN1*%
X183500000Y-77500000D03*
%TO.N,/TRAN2*%
X182500000Y-80000000D03*
%TO.N,/TRAN3*%
X181500000Y-82500000D03*
%TO.N,/TRAN4*%
X180500000Y-85000000D03*
D18*
%TO.N,/BAT-*%
X192614500Y-81393250D03*
%TO.N,/BAT+*%
X192658125Y-83341875D03*
D17*
%TO.N,/3.3V*%
X200602000Y-90000000D03*
D19*
%TO.N,/CHIP_EN*%
X195789500Y-77588250D03*
%TD*%
D20*
%TO.N,/GND*%
X193500000Y-90000000D02*
X201500000Y-82000000D01*
X193135000Y-90365000D02*
X193500000Y-90000000D01*
X185400000Y-90365000D02*
X193135000Y-90365000D01*
D21*
%TO.N,/TRAN1*%
X183500000Y-77500000D02*
X183500000Y-93500000D01*
X183500000Y-93500000D02*
X187420000Y-97420000D01*
X187420000Y-97420000D02*
X188380000Y-97420000D01*
%TO.N,/TRAN2*%
X184337000Y-99014000D02*
X187434000Y-99014000D01*
X182500000Y-97177000D02*
X184337000Y-99014000D01*
X187434000Y-99014000D02*
X188380000Y-99960000D01*
X182500000Y-80000000D02*
X182500000Y-97177000D01*
%TO.N,/TRAN3*%
X187434000Y-101554000D02*
X188380000Y-102500000D01*
X185040529Y-101554000D02*
X187434000Y-101554000D01*
X181500000Y-82500000D02*
X181500000Y-98013471D01*
X181500000Y-98013471D02*
X185040529Y-101554000D01*
%TO.N,/TRAN4*%
X180500000Y-85000000D02*
X180500000Y-99553471D01*
X184946529Y-104000000D02*
X187340000Y-104000000D01*
X180500000Y-99553471D02*
X184946529Y-104000000D01*
X187340000Y-104000000D02*
X188380000Y-105040000D01*
D20*
%TO.N,/BAT+*%
X190439818Y-108831000D02*
X195481818Y-103789000D01*
X195481818Y-103789000D02*
X197541000Y-103789000D01*
X186396000Y-108831000D02*
X190439818Y-108831000D01*
X197541000Y-103789000D02*
X198600000Y-102730000D01*
X185400000Y-107835000D02*
X186396000Y-108831000D01*
%TO.N,/3.3V*%
X197595000Y-92905000D02*
X200500000Y-90000000D01*
X200500000Y-90000000D02*
X200602000Y-90000000D01*
X185400000Y-92905000D02*
X197595000Y-92905000D01*
%TD*%
M02*
