%TF.GenerationSoftware,KiCad,Pcbnew,9.0.4*%
%TF.CreationDate,2026-04-18T11:06:45-05:00*%
%TF.ProjectId,Vibro_Band,56696272-6f5f-4426-916e-642e6b696361,rev?*%
%TF.SameCoordinates,Original*%
%TF.FileFunction,Soldermask,Bot*%
%TF.FilePolarity,Negative*%
%FSLAX46Y46*%
G04 Gerber Fmt 4.6, Leading zero omitted, Abs format (unit mm)*
G04 Created by KiCad (PCBNEW 9.0.4) date 2026-04-18 11:06:45*
%MOMM*%
%LPD*%
G01*
G04 APERTURE LIST*
G04 Aperture macros list*
%AMRoundRect*
0 Rectangle with rounded corners*
0 $1 Rounding radius*
0 $2 $3 $4 $5 $6 $7 $8 $9 X,Y pos of 4 corners*
0 Add a 4 corners polygon primitive as box body*
4,1,4,$2,$3,$4,$5,$6,$7,$8,$9,$2,$3,0*
0 Add four circle primitives for the rounded corners*
1,1,$1+$1,$2,$3*
1,1,$1+$1,$4,$5*
1,1,$1+$1,$6,$7*
1,1,$1+$1,$8,$9*
0 Add four rect primitives between the rounded corners*
20,1,$1+$1,$2,$3,$4,$5,0*
20,1,$1+$1,$4,$5,$6,$7,0*
20,1,$1+$1,$6,$7,$8,$9,0*
20,1,$1+$1,$8,$9,$2,$3,0*%
G04 Aperture macros list end*
%ADD10R,1.700000X1.700000*%
%ADD11C,1.700000*%
%ADD12O,3.500000X2.200000*%
%ADD13R,2.500000X1.500000*%
%ADD14O,2.500000X1.500000*%
%ADD15RoundRect,0.250000X-0.550000X-0.550000X0.550000X-0.550000X0.550000X0.550000X-0.550000X0.550000X0*%
%ADD16C,1.600000*%
%ADD17C,1.200000*%
%ADD18C,2.000000*%
G04 APERTURE END LIST*
D10*
%TO.C,J3*%
X185400000Y-75125000D03*
D11*
X185400000Y-77665000D03*
X185400000Y-80205000D03*
X185400000Y-82745000D03*
X185400000Y-85285000D03*
X185400000Y-87825000D03*
X185400000Y-90365000D03*
X185400000Y-92905000D03*
%TD*%
D12*
%TO.C,SW1*%
X206000000Y-117100000D03*
X206000000Y-108900000D03*
D13*
X206000000Y-115000000D03*
D14*
X206000000Y-113000000D03*
X206000000Y-111000000D03*
%TD*%
D15*
%TO.C,U1*%
X188380000Y-97420000D03*
D16*
X188380000Y-99960000D03*
X188380000Y-102500000D03*
X188380000Y-105040000D03*
X188380000Y-107580000D03*
X188380000Y-110120000D03*
X188380000Y-112660000D03*
X188380000Y-115200000D03*
X196000000Y-115200000D03*
X196000000Y-112660000D03*
X196000000Y-110120000D03*
X196000000Y-107580000D03*
X196000000Y-105040000D03*
X196000000Y-102500000D03*
X196000000Y-99960000D03*
X196000000Y-97420000D03*
%TD*%
D10*
%TO.C,J2*%
X185400000Y-97675000D03*
D11*
X185400000Y-100215000D03*
X185400000Y-102755000D03*
X185400000Y-105295000D03*
X185400000Y-107835000D03*
X185400000Y-110375000D03*
%TD*%
D10*
%TO.C,J1*%
X198600000Y-97650000D03*
D11*
X198600000Y-100190000D03*
X198600000Y-102730000D03*
X198600000Y-105270000D03*
%TD*%
D17*
X192614500Y-81393250D03*
X192658125Y-83341875D03*
D18*
X195789500Y-77588250D03*
M02*
